<!DOCTYPE svg PUBLIC "-//W3C//DTD SVG 20010904//EN" "http://www.w3.org/TR/2001/REC-SVG-20010904/DTD/svg10.dtd">
<svg version="1.0" xmlns="http://www.w3.org/2000/svg" width="370px" height="370px" viewBox="0 0 3700 3700" preserveAspectRatio="xMidYMid meet">
<g id="layer101" fill="#005980" stroke="none">
 <path d="M1890 3655 c-39 -22 -57 -25 -148 -25 -64 0 -128 -6 -166 -16 -43 -11 -86 -15 -143 -11 l-82 5 -154 -73 c-85 -40 -176 -81 -201 -89 -79 -27 -102 -43 -135 -94 -44 -68 -58 -79 -121 -87 -99 -13 -114 -24 -138 -102 -21 -64 -29 -76 -136 -183 -119 -121 -136 -145 -155 -224 -13 -51 -61 -142 -140 -259 -42 -62 -45 -73 -44 -125 3 -91 -35 -279 -68 -338 -17 -30 -35 -85 -45 -136 l-16 -85 31 -61 c18 -36 35 -90 41 -129 12 -87 20 -113 59 -194 25 -53 31 -79 31 -133 0 -74 13 -113 61 -183 30 -43 32 -49 21 -87 -12 -47 0 -79 51 -130 55 -55 123 -139 161 -198 19 -31 57 -73 83 -94 27 -21 102 -92 168 -158 112 -111 127 -122 223 -168 57 -26 131 -57 164 -69 34 -11 88 -34 122 -51 92 -47 233 -94 316 -108 64 -10 82 -9 119 4 69 25 123 21 187 -16 l56 -31 87 10 c56 6 110 20 156 40 39 17 90 34 115 38 91 15 409 134 455 171 89 71 109 83 150 89 91 14 218 112 254 196 13 29 51 86 85 128 34 42 77 101 95 131 47 78 67 97 133 127 32 14 60 33 63 42 3 10 4 51 3 92 -2 69 0 79 33 134 19 33 53 94 74 135 l38 75 2 176 2 176 33 69 c31 66 32 72 26 153 -4 46 -15 104 -25 130 -10 25 -29 89 -41 141 -24 98 -46 152 -85 205 -12 17 -41 70 -65 118 -34 72 -41 96 -36 125 3 21 -1 57 -8 82 -12 42 -17 47 -74 70 -86 35 -98 50 -106 121 -3 33 -10 69 -16 79 -6 11 -44 44 -85 75 -41 30 -81 64 -87 75 -21 33 -184 169 -222 185 -19 8 -59 15 -88 15 -48 0 -58 4 -108 45 -56 46 -89 61 -191 89 -31 9 -73 30 -95 47 -62 49 -92 58 -185 52 -70 -4 -93 -2 -139 16 -70 27 -94 26 -150 -4z"/>
 </g>
<g id="layer102" fill="#005e8c" stroke="none">
 <path d="M1890 3655 c-39 -22 -57 -25 -146 -25 -124 0 -164 -7 -165 -29 0 -9 -2 -11 -5 -6 -2 6 -51 9 -121 9 l-118 -2 -145 -70 c-80 -38 -167 -77 -193 -86 -73 -25 -105 -44 -112 -67 -4 -12 -25 -41 -47 -64 -36 -38 -48 -44 -97 -50 -99 -12 -115 -23 -139 -101 -19 -61 -31 -79 -107 -157 -47 -48 -85 -92 -85 -98 0 -6 -4 -8 -9 -5 -21 13 -71 -68 -90 -149 -12 -51 -62 -143 -134 -249 -22 -33 -42 -69 -43 -80 -1 -12 -3 -23 -4 -26 -6 -14 -4 -117 2 -114 4 2 10 0 13 -6 4 -6 1 -9 -5 -8 -7 2 -14 -4 -16 -12 -2 -8 -12 -53 -22 -100 -11 -47 -31 -106 -46 -131 -24 -42 -35 -86 -50 -188 -3 -25 3 -50 26 -94 17 -34 32 -83 35 -114 4 -33 9 -49 14 -41 4 7 11 9 15 5 4 -3 2 -13 -5 -21 -15 -18 -7 -52 36 -142 27 -58 33 -83 33 -137 0 -66 15 -121 31 -111 5 3 6 -1 4 -8 -3 -7 9 -36 26 -63 29 -46 31 -53 21 -90 -9 -33 -7 -45 9 -76 10 -21 28 -40 39 -44 11 -3 20 -11 20 -17 0 -5 21 -33 47 -62 25 -28 66 -81 90 -118 24 -37 65 -84 91 -104 26 -20 79 -69 117 -108 147 -149 180 -175 291 -226 59 -28 120 -52 135 -54 15 -1 34 -7 41 -12 13 -10 136 -67 173 -80 11 -4 26 -6 33 -5 6 1 12 -2 12 -8 0 -13 108 -47 192 -62 57 -9 75 -8 119 6 68 23 220 11 204 -16 -13 -19 39 -31 109 -24 78 7 120 19 211 61 33 15 71 26 85 25 25 -2 88 18 301 96 92 34 169 75 169 89 0 3 -3 3 -8 0 -4 -2 -16 2 -27 10 -19 14 -19 15 8 10 19 -3 43 3 71 19 23 13 60 26 81 30 96 17 219 114 259 205 13 30 49 84 80 120 68 79 109 146 100 163 -4 6 -4 9 0 5 4 -4 21 9 38 28 16 18 56 46 89 60 32 15 61 34 64 43 3 10 4 51 3 92 -2 62 2 81 23 119 13 25 27 47 30 50 13 12 77 149 72 154 -4 3 -1 6 6 6 7 0 9 5 6 10 -3 6 -3 10 2 10 4 0 8 78 9 173 l0 172 33 70 c32 68 33 73 26 155 -3 46 -12 91 -18 99 -7 8 -10 15 -8 15 2 1 -6 33 -17 71 -11 39 -26 95 -32 125 -15 65 -53 145 -76 158 -9 5 -15 12 -15 15 1 4 -20 50 -45 103 -38 79 -45 101 -40 132 12 78 -23 133 -104 161 -54 18 -80 48 -80 93 0 26 -5 41 -16 45 -12 4 -13 8 -3 14 24 14 -7 55 -83 111 -40 30 -81 57 -91 61 -10 4 -15 12 -12 17 7 11 -21 39 -110 115 -75 64 -121 85 -186 85 -48 0 -60 4 -95 34 -43 36 -96 63 -189 94 -86 29 -122 46 -122 57 -1 5 -20 20 -44 32 -38 19 -54 21 -117 16 -71 -6 -177 10 -188 29 -10 16 -70 7 -114 -17z m-747 -181 c-4 -10 -9 -12 -15 -6 -12 12 -1 35 12 27 5 -3 6 -13 3 -21z m-376 -269 c8 -8 13 -19 11 -24 -2 -5 -11 2 -21 15 -20 27 -14 32 10 9z m2523 -396 c0 -5 -17 -8 -37 -8 -24 1 -29 3 -15 6 12 2 22 8 22 13 0 5 7 7 15 4 8 -4 15 -10 15 -15z m130 -203 c-6 -9 -19 -12 -28 -8 -17 6 -14 7 37 21 2 1 -2 -5 -9 -13z m169 -743 c-8 -9 -16 -10 -22 -4 -13 13 0 31 19 24 11 -4 12 -8 3 -20z m-14 -162 c10 -17 -12 -21 -25 -6 -10 12 -10 15 3 15 9 0 18 -4 22 -9z m-15 -281 c12 -8 12 -10 -5 -10 -11 0 -27 5 -35 10 -12 8 -12 10 5 10 11 0 27 -5 35 -10z m-3320 -124 c0 -23 -16 -27 -17 -5 -1 10 2 19 8 19 5 0 9 -6 9 -14z m247 -487 c-15 -24 -20 -18 -11 16 4 18 9 23 14 14 5 -7 3 -20 -3 -30z m673 -529 c0 -5 -7 -10 -15 -10 -8 0 -15 5 -15 10 0 6 7 10 15 10 8 0 15 -4 15 -10z"/>
 </g>
<g id="layer103" fill="#00659c" stroke="none">
 <path d="M1890 3655 c-25 -14 -52 -25 -60 -25 -21 0 -40 -20 -40 -41 0 -10 -3 -19 -7 -21 -5 -1 -15 -16 -23 -32 -17 -32 -40 -46 -40 -23 0 8 11 31 25 51 41 61 36 67 -52 64 l-78 -3 -30 -50 c-44 -74 -73 -111 -80 -103 -7 7 29 83 45 93 5 3 10 14 10 23 0 15 -12 17 -122 12 -117 -5 -126 -7 -193 -41 -73 -38 -70 -34 -142 -171 -23 -44 -43 -62 -43 -39 0 19 21 66 34 76 7 6 15 24 19 41 l6 32 -67 -28 c-37 -16 -82 -34 -100 -41 -20 -7 -34 -20 -38 -35 -3 -13 -10 -24 -15 -24 -5 0 -9 -5 -9 -11 0 -11 -5 -24 -49 -121 -11 -26 -21 -52 -21 -58 0 -5 -4 -10 -9 -10 -5 0 -11 -9 -14 -20 -9 -37 -32 -21 -57 41 -14 34 -30 63 -36 66 -7 2 -27 -2 -46 -10 -30 -13 -37 -23 -56 -82 l-21 -67 23 -62 c14 -36 21 -69 16 -76 -11 -17 -26 -6 -34 26 -4 14 -14 37 -23 50 l-16 25 -24 -23 c-14 -13 -43 -45 -66 -71 l-40 -48 21 -52 c26 -61 27 -71 8 -86 -11 -9 -18 0 -36 49 -13 34 -28 59 -34 57 -16 -5 -51 -80 -75 -160 -19 -62 -20 -70 -6 -97 8 -16 12 -37 8 -46 -4 -12 -3 -15 5 -10 11 7 16 -5 25 -67 4 -23 2 -25 -10 -15 -18 15 -53 87 -53 109 0 35 -20 29 -40 -12 -12 -22 -37 -63 -57 -90 -41 -58 -41 -63 17 -185 39 -83 64 -184 41 -170 -6 4 -21 29 -32 57 -35 81 -78 59 -99 -52 -6 -30 -26 -85 -44 -124 -36 -73 -55 -162 -32 -147 7 4 38 36 70 72 82 93 119 130 124 126 2 -2 -4 -16 -13 -30 -9 -14 -16 -29 -16 -33 0 -4 -8 -19 -19 -33 -59 -74 -100 -130 -100 -139 0 -5 16 -18 37 -28 20 -11 43 -29 50 -40 14 -21 14 -21 -34 -7 -62 18 -94 35 -87 45 3 5 -2 6 -10 3 -21 -8 -21 -12 14 -86 16 -34 30 -75 30 -90 0 -20 5 -28 18 -28 10 0 24 -6 31 -12 6 -7 15 -13 19 -14 31 -3 64 -19 72 -34 18 -34 10 -38 -37 -18 -15 6 -33 10 -40 9 -6 -1 -14 3 -18 9 -3 5 -13 10 -21 10 -19 0 -11 -34 30 -122 26 -56 37 -69 69 -82 35 -14 39 -13 43 2 9 29 20 46 32 50 16 5 15 -42 -2 -76 -7 -15 -25 -62 -40 -105 l-28 -78 28 -42 c25 -37 26 -45 16 -81 -9 -34 -7 -46 9 -78 11 -21 24 -38 29 -38 6 0 10 2 10 3 0 3 45 130 66 187 5 13 7 13 14 -1 11 -19 -10 -108 -40 -177 l-20 -45 38 -41 c20 -22 49 -57 64 -76 16 -19 28 -28 28 -20 0 21 42 120 51 120 16 0 13 -38 -8 -104 -20 -62 -21 -72 -8 -92 17 -26 98 -94 112 -94 6 0 13 13 16 29 3 16 17 42 31 57 24 27 25 28 26 8 0 -27 -27 -106 -40 -114 -11 -7 101 -130 118 -130 7 0 12 8 12 18 0 10 3 22 8 26 4 4 7 11 7 14 2 19 17 52 25 52 16 0 23 -42 9 -51 -8 -5 -11 -9 -7 -9 4 0 1 -18 -8 -40 -13 -32 -14 -43 -4 -55 7 -8 15 -15 19 -15 10 0 31 63 31 94 0 38 24 29 28 -11 2 -16 -3 -48 -11 -71 -18 -50 -20 -48 98 -103 137 -63 143 -64 160 -26 7 18 16 40 19 50 15 48 54 25 139 -83 80 -100 98 -117 152 -133 57 -18 175 -40 181 -34 2 2 -23 33 -56 68 -60 65 -69 79 -48 79 11 0 125 -116 131 -134 2 -5 17 -4 37 2 18 7 52 12 75 12 23 0 44 3 48 6 3 3 -15 25 -39 47 -53 48 -72 76 -49 73 8 -1 32 -20 53 -42 22 -21 65 -63 96 -92 l57 -54 72 7 c104 10 106 13 53 72 -47 52 -53 63 -36 63 16 0 90 -71 90 -86 0 -8 8 -14 19 -14 18 0 111 37 111 45 0 2 -21 24 -47 49 -66 63 -29 63 44 0 48 -41 57 -45 88 -40 19 4 36 10 39 15 3 4 -17 25 -45 46 -27 22 -49 43 -49 47 0 10 37 10 42 0 2 -4 26 -24 54 -45 l52 -37 73 31 c41 17 78 38 82 45 5 9 17 12 32 8 14 -3 41 2 67 14 77 36 77 36 24 85 -52 48 -49 75 4 37 39 -28 94 -35 123 -16 12 8 40 18 62 22 22 4 56 15 75 25 41 20 108 69 96 69 -5 0 -2 8 5 18 11 14 11 15 -1 5 -17 -16 -44 -16 -110 -2 -44 9 -49 13 -38 26 9 11 23 14 58 9 25 -4 66 -9 93 -13 l47 -6 30 66 c16 36 34 68 40 72 21 13 9 25 -24 25 -63 0 -115 32 -68 42 16 4 48 -2 99 -17 18 -6 30 0 54 26 39 42 89 121 83 131 -2 4 -24 10 -48 13 -56 9 -77 21 -56 35 8 5 21 8 28 5 7 -2 33 -7 58 -11 39 -5 50 -3 72 18 15 13 46 33 69 43 23 10 50 26 59 36 19 21 15 53 -6 56 -8 1 -36 4 -62 8 -29 4 -49 12 -52 22 -6 14 2 15 62 10 l69 -7 0 44 c0 28 8 57 22 80 13 20 22 38 20 40 -2 2 -30 9 -62 17 -32 8 -58 19 -57 24 0 11 58 12 110 2 l35 -8 32 65 c35 71 33 76 -32 76 -46 0 -65 9 -58 27 5 12 18 14 76 8 l70 -7 -6 53 c-4 30 -7 79 -7 110 0 62 -7 68 -87 84 -37 7 -50 22 -35 37 6 6 28 5 66 -5 31 -7 58 -12 61 -9 3 3 5 23 5 44 0 23 12 63 30 98 17 33 30 69 30 81 0 20 -1 21 -24 6 -13 -9 -37 -28 -53 -43 -51 -47 -100 -84 -106 -78 -12 12 80 124 103 124 5 0 18 14 30 30 12 17 27 30 34 30 8 0 10 14 6 48 l-5 47 -50 -3 c-27 -2 -58 -6 -67 -8 -13 -4 -18 0 -18 17 0 19 4 21 35 16 19 -3 35 -2 35 4 0 5 6 9 14 9 26 0 27 17 7 94 -22 83 -40 125 -41 94 0 -15 -9 -18 -55 -18 -40 0 -55 4 -55 14 0 16 30 26 83 26 35 0 38 2 31 23 -12 39 -35 78 -49 84 -8 3 -41 1 -72 -5 -42 -7 -60 -7 -65 1 -10 16 8 25 65 32 26 4 47 10 45 14 -2 3 -11 27 -22 54 -10 26 -25 47 -32 47 -8 0 -14 4 -14 9 0 5 -20 6 -44 4 -52 -6 -103 4 -90 17 5 5 34 10 65 11 l56 2 -2 71 c-1 39 -6 84 -10 99 -7 27 -9 28 -54 22 -25 -4 -62 -11 -81 -16 -46 -12 -97 -11 -105 1 -8 14 29 27 101 35 81 10 94 19 47 33 -53 16 -81 48 -85 97 l-3 40 -66 -3 c-51 -3 -67 -1 -72 11 -6 15 35 27 96 27 46 0 30 28 -53 92 -80 61 -103 67 -174 47 -39 -11 -91 -5 -82 10 3 4 31 13 63 20 32 7 64 16 70 20 8 4 -14 29 -63 71 -73 63 -122 89 -134 71 -3 -5 -25 -11 -49 -15 -24 -3 -69 -11 -100 -17 -58 -12 -122 -5 -105 11 5 5 45 16 89 26 164 35 156 32 89 33 -55 1 -65 5 -104 39 l-44 37 -130 3 c-71 1 -142 -2 -158 -7 -26 -9 -28 -8 -28 17 0 15 11 44 25 64 23 33 23 37 7 50 -28 24 -80 41 -105 34 -17 -4 -33 -24 -56 -70 -17 -35 -38 -67 -47 -70 -19 -7 -13 16 22 87 l24 47 -38 0 c-22 0 -54 5 -72 12 -27 9 -35 9 -38 -2 -3 -7 -13 -21 -24 -32 -10 -10 -16 -22 -14 -27 7 -10 -41 -67 -49 -59 -3 3 3 22 15 42 11 20 20 43 20 50 0 7 7 19 15 26 8 7 12 16 9 21 -10 16 -58 8 -104 -16z m-520 -85 c0 -10 -7 -23 -16 -28 -9 -5 -15 -13 -14 -18 2 -13 -42 -83 -57 -88 -22 -9 -14 17 20 70 19 28 36 58 40 67 9 23 27 21 27 -3z m1180 -3340 c0 -16 -14 -17 -41 -2 -16 10 -29 23 -29 30 0 6 -5 12 -11 12 -5 0 -7 4 -4 10 6 10 85 -36 85 -50z"/>
 <path d="M2366 3564 c-9 -25 -1 -31 49 -32 29 -2 44 2 40 8 -3 5 -13 10 -21 10 -8 0 -25 7 -38 15 -21 14 -24 14 -30 -1z"/>
 <path d="M815 3290 c-10 -11 -28 -20 -41 -20 -18 0 -22 -5 -19 -22 3 -12 11 -28 19 -36 12 -12 18 -7 40 38 29 58 29 71 1 40z"/>
 <path d="M162 1268 c4 -62 17 -65 34 -8 11 36 10 41 -6 50 -29 16 -31 13 -28 -42z"/>
 <path d="M1145 248 c-8 -21 -15 -41 -15 -45 1 -4 32 -22 70 -40 93 -42 93 -21 -1 80 l-38 42 -16 -37z"/>
 </g>
<g id="layer104" fill="#006dab" stroke="none">
 <path d="M1892 3656 c-23 -13 -51 -26 -61 -29 -10 -2 -31 -30 -47 -61 -16 -32 -36 -66 -45 -75 -22 -23 -50 -77 -43 -83 2 -3 -2 -11 -11 -18 -20 -17 -19 -7 5 42 11 23 20 51 20 62 0 12 11 39 23 61 44 77 45 75 -38 75 l-74 0 -53 -90 c-29 -49 -56 -90 -60 -90 -4 0 -8 -6 -8 -13 0 -8 -10 -25 -22 -38 -18 -20 -20 -21 -14 -4 5 11 14 40 22 65 7 25 27 65 44 90 16 25 30 47 30 50 0 3 -37 4 -82 2 l-83 -4 -40 -71 c-22 -39 -49 -82 -60 -96 -29 -37 -43 -64 -66 -126 -11 -31 -25 -53 -30 -50 -5 4 -9 -4 -9 -17 -1 -13 -7 -34 -15 -48 l-14 -25 1 28 c2 15 6 27 10 27 4 0 8 7 8 16 0 8 11 39 24 67 14 29 32 73 41 98 9 25 36 79 60 119 24 41 42 76 39 79 -2 3 -40 -13 -84 -34 l-80 -39 -51 -101 c-28 -55 -57 -107 -65 -116 -8 -8 -14 -21 -14 -27 0 -7 -5 -12 -10 -12 -6 0 -10 -6 -8 -12 3 -18 -35 -138 -44 -138 -11 0 -10 44 2 56 5 5 24 54 43 109 19 55 45 125 60 156 l26 57 -72 -30 c-40 -17 -82 -34 -94 -39 -21 -8 -58 -76 -104 -193 -11 -26 -35 -77 -53 -112 -33 -62 -34 -63 -34 -28 0 36 -50 164 -65 164 -4 0 -22 -6 -40 -14 -27 -11 -36 -23 -50 -66 -22 -69 -22 -85 9 -160 17 -42 23 -72 19 -89 -4 -14 -3 -23 1 -19 4 5 13 -1 21 -12 19 -27 43 -26 43 2 0 14 3 19 10 12 9 -9 -10 -114 -29 -159 -12 -27 -40 -204 -56 -355 -17 -146 -18 -486 -3 -615 19 -165 17 -207 -15 -244 -15 -18 -37 -52 -48 -75 -35 -71 -49 -91 -60 -88 -6 1 -8 -1 -5 -6 8 -13 -20 -84 -38 -97 -9 -7 -16 -25 -16 -41 0 -26 -19 -72 -20 -49 0 6 -5 2 -11 -8 -5 -9 -7 -21 -4 -27 3 -5 1 -17 -4 -27 -5 -10 -26 -71 -45 -135 l-37 -118 56 -65 56 -66 14 34 c7 18 17 45 20 59 4 14 18 36 31 49 13 12 24 30 24 38 0 28 39 128 92 238 6 12 15 20 20 17 13 -8 9 -44 -6 -50 -8 -3 -18 -20 -21 -37 -12 -60 -15 -66 -32 -60 -12 5 -15 2 -11 -14 3 -11 2 -27 -3 -35 -4 -8 -28 -79 -53 -159 l-45 -144 55 -53 c31 -28 59 -52 63 -52 4 0 20 31 37 70 16 38 32 70 37 70 4 0 7 5 7 10 0 6 11 28 24 49 14 21 22 41 20 44 -9 8 6 48 15 42 5 -2 9 6 9 20 0 22 22 55 36 55 9 0 -5 -52 -17 -68 -14 -18 -77 -174 -77 -192 0 -8 -11 -41 -24 -73 l-24 -57 40 -50 c42 -53 78 -80 78 -59 0 7 23 60 52 118 29 58 51 112 50 119 -2 6 1 12 6 12 5 0 9 6 10 13 0 6 5 29 11 50 8 33 6 46 -14 85 -13 26 -22 49 -19 53 2 4 -10 23 -28 42 -18 19 -32 43 -30 53 5 36 -67 255 -86 262 -7 2 -12 -1 -12 -6 0 -5 -8 -19 -19 -31 -15 -17 -20 -18 -24 -7 -3 8 3 24 14 37 10 12 19 28 19 35 0 7 5 14 12 16 9 3 7 22 -6 74 -10 38 -19 87 -20 109 -1 22 -8 50 -15 63 -8 15 -9 28 -2 39 8 16 10 15 15 -7 18 -84 24 -125 19 -133 -2 -4 0 -13 5 -20 6 -7 17 -50 26 -96 8 -46 20 -89 26 -95 5 -7 11 -29 12 -49 2 -20 6 -37 11 -37 4 0 7 -8 7 -18 0 -10 7 -27 15 -38 8 -12 11 -24 8 -28 -3 -3 -1 -6 5 -6 7 0 12 -10 12 -23 0 -12 7 -33 16 -45 8 -12 12 -27 9 -33 -4 -6 2 -19 14 -30 12 -11 21 -30 21 -44 0 -13 3 -25 8 -27 4 -1 36 -61 72 -133 35 -71 71 -138 79 -148 15 -18 10 -34 -8 -23 -12 8 -51 92 -51 110 0 7 -9 12 -20 13 -11 1 -20 -3 -20 -9 0 -7 -9 -30 -19 -52 -11 -23 -26 -84 -35 -136 -8 -52 -17 -105 -20 -118 -5 -21 4 -28 92 -69 153 -72 146 -72 172 -3 12 33 19 69 16 82 -3 13 -3 17 0 10 3 -6 9 -10 13 -7 5 2 41 -37 82 -87 125 -154 147 -176 197 -192 38 -12 151 -36 170 -36 2 0 -15 24 -40 53 -42 50 -126 159 -141 184 -4 7 -1 10 10 9 10 -1 25 -17 34 -34 9 -17 18 -29 21 -27 4 5 125 -123 153 -161 8 -12 16 -13 38 -5 16 6 49 11 75 11 l46 0 -35 38 c-51 53 -89 102 -89 113 0 25 35 -1 135 -102 l110 -110 65 6 c110 11 109 10 52 69 -41 42 -82 104 -82 123 0 6 58 -47 121 -109 27 -27 50 -48 52 -48 3 0 26 9 52 21 l47 21 -54 52 c-29 29 -58 59 -64 67 -6 8 -20 21 -30 30 -46 40 -104 111 -98 120 6 10 45 -27 126 -118 20 -23 38 -39 40 -37 3 2 33 -21 68 -51 67 -58 74 -61 116 -45 l26 10 -43 34 c-40 31 -129 121 -129 132 0 8 28 4 32 -4 2 -5 45 -41 96 -80 l93 -70 74 31 74 30 -61 57 c-39 35 -59 61 -54 68 8 13 45 -11 119 -75 20 -18 43 -33 50 -33 7 0 37 12 66 26 l52 26 -55 55 c-31 29 -56 58 -56 63 0 14 36 3 69 -20 38 -29 102 -41 126 -24 9 7 36 16 58 19 47 8 95 31 145 68 l34 25 -49 7 c-58 8 -94 17 -193 44 -126 34 -158 46 -156 56 1 13 70 8 74 -5 2 -5 15 -10 28 -10 14 0 35 -5 46 -11 12 -7 67 -15 122 -20 56 -4 118 -11 138 -15 l38 -7 26 59 c15 33 33 67 41 76 14 15 11 17 -24 23 -61 9 -114 25 -109 33 2 4 -18 8 -44 9 -27 1 -65 9 -86 18 -20 8 -49 15 -65 15 -16 0 -29 5 -29 12 0 6 -3 9 -6 6 -7 -8 -117 21 -124 32 -3 5 -21 12 -40 15 -51 9 -237 73 -290 101 -56 28 -87 37 -100 29 -6 -4 -5 -12 5 -21 8 -9 15 -24 15 -34 0 -10 11 -25 25 -34 14 -9 25 -25 25 -35 0 -10 7 -24 15 -31 8 -7 12 -17 8 -23 -3 -6 -1 -7 5 -3 7 4 17 -4 24 -21 12 -24 33 -48 82 -90 8 -7 53 -20 100 -29 73 -15 83 -19 70 -31 -15 -15 -74 -9 -74 7 0 8 -13 8 -64 1 -5 0 -3 -8 4 -16 6 -8 10 -20 8 -26 -4 -13 -141 154 -167 204 -10 18 -33 57 -52 87 -20 30 -44 73 -54 95 -10 22 -24 44 -31 48 -8 4 -14 18 -14 30 0 13 -5 28 -12 35 -6 6 -13 21 -15 32 -2 12 -12 38 -22 59 -16 31 -17 38 -5 38 8 0 13 -6 10 -13 -3 -7 2 -18 10 -24 8 -7 14 -20 14 -29 0 -9 9 -31 20 -49 11 -18 20 -39 20 -46 0 -12 23 -28 40 -27 3 0 14 -6 25 -13 11 -7 47 -23 80 -35 33 -12 65 -26 70 -31 12 -10 305 -110 305 -104 0 2 21 -6 46 -16 25 -11 57 -20 71 -20 14 0 39 -7 56 -15 18 -8 50 -15 72 -17 22 -2 39 -7 38 -13 -1 -6 20 -9 51 -7 29 2 77 -1 107 -7 l54 -10 30 36 c17 20 40 53 53 74 l22 38 -57 11 c-32 6 -66 15 -75 20 -9 5 -36 12 -59 15 -23 3 -48 10 -54 15 -7 6 -32 12 -56 14 -25 3 -58 12 -74 20 -17 9 -38 16 -48 16 -10 0 -16 3 -14 8 3 4 -9 8 -27 9 -35 1 -213 58 -231 73 -7 5 -15 7 -18 4 -3 -4 -18 3 -32 15 -15 11 -42 23 -61 27 -36 7 -44 18 -19 28 8 3 15 2 15 -3 0 -5 16 -12 35 -15 19 -4 34 -12 32 -19 -1 -8 8 -11 26 -9 15 2 35 -4 43 -13 8 -8 24 -15 35 -15 11 0 17 -4 14 -10 -4 -6 6 -7 27 -3 19 3 30 2 25 -3 -5 -5 15 -14 45 -20 62 -14 230 -60 273 -76 17 -6 88 -17 158 -26 124 -14 129 -14 150 5 12 11 37 26 55 33 46 18 82 48 82 68 0 14 -16 20 -77 30 -42 6 -84 19 -94 28 -10 9 -24 14 -32 11 -16 -6 -210 43 -430 109 -30 9 -7 26 26 19 18 -3 75 -19 127 -34 131 -40 265 -71 330 -77 30 -3 73 -10 95 -15 22 -4 43 -9 46 -9 3 0 6 20 6 44 0 27 8 56 22 79 l22 36 -38 10 c-21 6 -44 11 -51 11 -7 0 -29 7 -50 17 -20 9 -52 17 -71 19 -19 2 -38 8 -42 15 -3 6 -12 9 -18 5 -6 -4 -25 -1 -43 7 -18 8 -55 20 -83 27 -27 7 -73 23 -101 36 -28 13 -57 24 -65 24 -8 0 -26 6 -41 14 -15 8 -40 17 -57 21 -17 4 -31 10 -31 14 0 4 -6 8 -14 8 -23 0 -76 25 -71 33 3 4 -13 10 -35 14 -22 3 -40 10 -40 15 0 5 -14 12 -31 16 -16 4 -28 12 -26 18 5 14 36 10 57 -8 8 -7 61 -29 118 -50 56 -20 102 -40 102 -44 0 -4 8 -7 18 -8 20 -1 76 -20 115 -39 16 -8 34 -14 40 -14 7 0 24 -7 39 -14 16 -8 42 -17 59 -20 16 -2 36 -9 42 -15 7 -5 26 -9 43 -9 16 1 40 -4 52 -11 13 -7 55 -16 95 -21 40 -5 90 -12 113 -16 l40 -6 27 52 c15 28 27 55 27 60 0 4 -24 11 -52 14 -29 4 -64 13 -78 21 l-25 13 29 12 c16 6 41 9 55 6 14 -3 44 -8 65 -11 l39 -5 -7 52 c-3 29 -6 78 -6 109 l0 55 -52 13 c-62 16 -109 41 -101 54 3 5 -4 6 -16 2 -23 -7 -64 2 -57 13 2 4 -12 8 -31 9 -19 1 -40 6 -46 11 -7 5 -28 13 -47 17 -19 4 -43 13 -53 20 -36 25 10 25 95 0 45 -14 91 -22 102 -19 12 4 76 61 144 127 107 106 122 125 122 154 0 18 -3 33 -7 33 -5 0 -37 -5 -73 -11 -36 -6 -75 -12 -86 -13 -12 -1 -33 -14 -45 -29 -40 -44 -132 -117 -141 -111 -4 3 -8 0 -8 -5 0 -6 -10 -11 -22 -11 -18 0 -20 -2 -8 -10 12 -7 11 -10 -5 -16 -11 -4 -32 -21 -47 -37 -27 -31 -82 -42 -96 -20 -4 5 -20 13 -37 17 -42 10 -135 56 -135 67 0 5 -9 9 -20 9 -11 0 -20 5 -20 10 0 6 -9 10 -20 10 -10 0 -41 13 -68 29 -27 16 -59 32 -70 36 -12 3 -22 10 -22 14 0 4 -20 15 -45 25 -25 11 -45 26 -45 34 0 8 -6 12 -15 8 -8 -3 -20 0 -27 7 -7 7 -38 28 -68 47 -58 37 -72 49 -64 62 3 4 -1 5 -9 2 -8 -3 -17 2 -20 10 -4 9 -13 16 -21 16 -8 0 -16 4 -18 8 -1 5 -16 16 -33 24 -16 8 -29 19 -28 26 2 6 -4 9 -12 6 -9 -4 -15 0 -15 9 0 13 -21 28 -41 31 -4 1 -34 26 -67 56 -33 30 -62 55 -64 55 -10 2 -48 41 -48 51 0 7 -13 17 -29 22 -16 6 -34 19 -40 30 -20 37 -40 34 -51 -8 -15 -56 -28 -50 -19 8 4 26 8 55 8 64 1 9 7 23 14 30 6 7 13 24 15 38 4 36 22 50 22 17 0 -15 2 -27 4 -27 2 0 46 20 98 44 51 24 103 47 116 51 12 3 22 11 22 16 0 6 4 8 9 4 5 -3 13 0 16 6 4 5 13 8 21 5 7 -3 21 2 30 12 25 24 184 79 184 64 0 -4 4 -2 8 4 10 15 123 53 262 88 36 9 83 21 105 27 22 6 60 14 85 19 25 5 72 16 105 24 33 8 77 18 98 21 23 4 37 11 34 18 -2 7 -38 38 -81 71 l-78 58 -57 -11 c-31 -6 -92 -13 -136 -17 -44 -3 -91 -12 -105 -18 -14 -7 -52 -18 -85 -25 -33 -7 -85 -21 -117 -31 -31 -10 -67 -16 -80 -13 -15 3 -19 2 -10 -4 8 -6 -8 -15 -50 -27 -60 -17 -132 -45 -228 -88 -24 -11 -56 -21 -69 -23 -30 -3 -57 -38 -67 -85 -4 -19 -8 -37 -9 -40 -1 -3 -7 -24 -14 -47 -6 -24 -16 -43 -21 -43 -14 0 -13 9 9 73 11 31 22 69 24 84 2 16 7 35 10 43 3 8 7 24 9 35 4 24 38 34 38 10 0 -12 4 -14 19 -5 25 13 34 13 25 -1 -4 -7 -2 -10 5 -8 7 3 13 9 13 14 1 15 28 31 73 44 22 7 60 21 85 31 25 10 86 31 135 45 50 15 108 33 130 41 22 8 49 13 60 13 11 -1 37 6 58 15 20 9 37 13 37 10 0 -4 7 -1 15 6 8 6 22 9 33 6 10 -3 37 3 60 14 22 11 51 20 64 20 13 0 44 6 71 13 l47 12 -76 65 c-87 74 -81 73 -244 40 -54 -11 -118 -20 -143 -20 -25 0 -58 -8 -75 -17 -18 -10 -36 -14 -48 -9 -19 7 -19 8 1 22 11 8 26 13 35 11 8 -2 32 7 52 20 21 13 46 23 57 23 11 0 32 5 48 11 15 7 38 11 50 11 12 -1 25 3 28 8 3 6 0 10 -8 10 -20 0 -75 29 -84 44 -14 22 -84 31 -200 26 -99 -5 -115 -8 -137 -29 -13 -12 -27 -18 -30 -13 -7 12 18 84 45 129 16 25 18 37 10 47 -15 18 -86 40 -105 33 -8 -3 -31 -37 -50 -74 -19 -37 -45 -79 -59 -91 l-25 -24 7 34 c4 18 20 56 34 85 15 29 27 54 27 56 0 3 -21 7 -47 10 -27 3 -57 7 -67 9 -14 2 -25 -10 -44 -47 -14 -27 -28 -52 -32 -55 -4 -3 -10 -15 -14 -27 -4 -13 -11 -23 -16 -23 -5 0 -12 -16 -16 -35 -3 -19 -11 -35 -16 -35 -18 0 10 98 50 177 18 34 32 65 32 68 0 13 -59 2 -98 -19z m181 -285 c-10 -7 -33 -52 -37 -71 -2 -8 -10 -31 -19 -50 -8 -19 -13 -38 -11 -42 3 -5 1 -8 -5 -8 -5 0 -15 -25 -21 -55 -8 -36 -16 -55 -26 -55 -12 0 -12 4 -4 20 6 11 8 20 5 20 -3 0 0 12 8 28 19 35 30 63 58 142 12 36 26 67 29 70 4 3 11 19 15 35 l9 30 4 -29 c2 -16 0 -32 -5 -35z m-192 -12 c-13 -31 -21 -40 -25 -28 -9 21 22 95 35 82 6 -6 3 -25 -10 -54z m389 31 c0 -6 -7 -25 -16 -41 -17 -34 -12 -62 10 -53 8 3 17 1 21 -5 9 -16 34 -14 51 4 19 19 88 20 103 1 10 -12 6 -15 -21 -21 -18 -4 -48 -13 -66 -21 -18 -9 -41 -13 -51 -9 -12 3 -21 0 -25 -10 -3 -10 -18 -15 -42 -15 -21 0 -35 -3 -32 -6 4 -3 -5 -22 -18 -41 -13 -20 -24 -42 -24 -49 0 -8 -5 -14 -11 -14 -5 0 -8 -4 -4 -9 3 -5 1 -12 -4 -16 -6 -3 -8 -12 -5 -20 3 -8 -1 -24 -10 -37 -15 -22 -16 -22 -16 -2 0 24 66 215 77 223 5 3 17 31 27 61 10 30 23 63 28 73 10 19 28 23 28 7z m-817 -55 c-9 -19 -20 -35 -25 -35 -11 0 -10 18 2 25 6 3 10 15 10 26 0 10 7 19 15 19 13 0 12 -5 -2 -35z m216 23 c0 -7 -4 -22 -8 -33 -8 -19 -8 -19 -15 2 -8 24 -1 43 15 43 5 0 9 -6 8 -12z m-29 -68 c0 -20 -5 -30 -15 -30 -18 0 -18 1 -5 34 13 34 20 33 20 -4z m196 -39 c-9 -16 -16 -43 -16 -59 0 -15 -7 -37 -16 -48 -14 -18 -15 -16 -9 21 3 22 12 56 19 75 8 19 18 44 22 55 6 17 8 18 11 3 2 -9 -3 -30 -11 -47z m-428 -8 c-11 -27 -30 -70 -43 -98 -12 -27 -28 -67 -34 -87 -7 -21 -17 -38 -23 -38 -6 0 -8 6 -5 13 2 6 12 38 21 70 9 31 21 57 26 57 6 0 10 11 10 23 0 13 9 34 20 47 11 13 20 29 20 36 0 7 6 15 13 17 6 3 13 6 14 6 1 1 -7 -20 -19 -46z m189 -73 c-13 -36 -28 -74 -35 -85 -11 -18 -12 -17 -6 10 11 59 28 115 36 115 3 0 10 10 14 23 4 12 9 18 11 12 1 -5 -7 -39 -20 -75z m-451 -53 c-8 -19 -20 -61 -26 -94 -7 -32 -17 -67 -23 -78 -6 -11 -10 -23 -9 -27 1 -4 -3 -20 -10 -35 -6 -15 -12 -34 -14 -41 -5 -25 -14 -26 -14 -1 0 21 30 129 47 169 3 8 7 20 8 25 4 26 19 71 28 83 5 6 6 12 3 12 -4 0 -1 6 6 14 19 21 21 12 4 -27z m647 -19 c-3 -13 -11 -37 -19 -55 -8 -17 -14 -40 -14 -51 0 -12 -4 -24 -10 -27 -5 -3 -10 -16 -10 -28 -1 -21 -1 -21 -12 -3 -8 15 -8 21 0 24 7 2 12 17 12 32 0 16 4 31 9 34 5 3 12 26 15 51 5 28 12 45 21 45 8 0 11 -8 8 -22z m-843 -104 c-12 -44 -29 -91 -36 -106 -8 -15 -16 -46 -19 -69 -3 -23 -9 -49 -14 -58 -5 -9 -9 -29 -9 -46 0 -16 -5 -41 -11 -55 -10 -25 -10 -24 -10 7 -1 47 16 125 54 238 18 55 36 120 40 143 5 29 10 41 17 34 6 -6 2 -37 -12 -88z m998 64 c1 -13 -9 -57 -23 -98 -13 -41 -34 -115 -46 -165 -12 -49 -26 -93 -32 -96 -5 -4 -7 -14 -4 -23 3 -8 1 -18 -5 -22 -12 -8 -8 29 17 126 9 36 20 81 25 100 24 96 55 200 60 200 3 0 7 -10 8 -22z m-1195 -40 c-3 -18 -10 -37 -14 -42 -5 -6 -9 -19 -9 -30 0 -15 -3 -17 -11 -9 -8 8 -7 20 5 43 8 18 13 36 10 41 -6 11 4 29 16 29 5 0 7 -15 3 -32z m547 -47 c-6 -12 -20 -52 -30 -89 -10 -37 -30 -105 -44 -152 -23 -77 -42 -177 -51 -255 -2 -16 -8 -68 -15 -114 -29 -214 -12 -527 45 -811 15 -74 31 -136 36 -138 5 -2 9 -10 9 -18 0 -8 13 -52 30 -99 16 -47 26 -93 23 -102 -4 -11 -3 -14 5 -9 7 4 12 1 12 -8 0 -9 3 -16 8 -16 10 0 55 -117 50 -132 -12 -35 -157 325 -162 400 0 12 -4 22 -9 22 -4 0 -5 11 -1 25 3 14 2 25 -4 25 -14 0 -47 178 -71 385 -9 84 -6 362 5 405 3 14 8 54 9 90 6 106 55 361 80 415 8 16 21 60 30 98 19 84 35 121 48 108 5 -5 4 -17 -3 -30z m224 -3 c-11 -67 -15 -78 -25 -78 -12 0 -4 62 12 92 15 27 19 22 13 -14z m203 -90 c-3 -13 -9 -48 -13 -78 -4 -30 -10 -59 -14 -65 -4 -5 -11 -37 -15 -70 -4 -33 -9 -76 -11 -95 -2 -19 -9 -59 -15 -88 -6 -29 -9 -59 -6 -66 3 -6 -1 -49 -8 -94 -16 -95 -18 -528 -3 -607 5 -27 13 -93 18 -147 5 -53 11 -100 12 -105 2 -4 -1 -9 -7 -11 -12 -3 -36 173 -28 206 3 12 0 28 -6 35 -17 22 -25 373 -11 547 14 188 15 196 23 240 3 19 9 64 12 100 8 93 16 140 25 145 5 3 6 14 3 25 -3 11 2 31 11 45 9 14 14 30 11 36 -9 14 5 69 17 69 6 0 8 -10 5 -22z m-253 -110 c-19 -74 -33 -148 -38 -203 -2 -22 -6 -51 -10 -65 -3 -14 -8 -47 -11 -75 -3 -27 -10 -86 -15 -130 -13 -96 -18 -365 -7 -365 4 0 7 -35 7 -77 0 -43 5 -116 11 -163 7 -47 13 -105 14 -130 2 -25 10 -65 18 -90 8 -25 21 -72 27 -105 6 -33 16 -68 21 -77 5 -10 9 -34 9 -53 0 -19 4 -35 9 -35 5 0 12 -14 16 -31 4 -17 13 -42 20 -56 8 -14 19 -46 27 -69 7 -24 16 -44 20 -44 4 0 8 -7 8 -15 0 -9 14 -45 30 -80 39 -83 39 -106 0 -36 -17 30 -30 60 -30 68 0 8 -4 12 -9 9 -5 -3 -12 10 -15 29 -4 19 -13 47 -21 62 -8 15 -15 33 -15 40 0 6 -6 24 -14 40 -31 63 -80 233 -101 348 -52 281 -66 648 -36 920 22 197 92 533 99 473 2 -15 -4 -56 -14 -90z m-426 -10 c-5 -29 -11 -62 -12 -73 -2 -11 -4 -20 -5 -20 -1 0 -4 -20 -6 -45 -2 -25 -9 -92 -15 -150 -5 -58 -10 -176 -10 -263 -1 -106 -4 -156 -11 -151 -12 7 -3 463 10 534 5 25 14 74 20 110 16 94 20 110 30 110 4 0 4 -24 -1 -52z m792 -142 c0 -30 -18 -81 -26 -73 -9 8 7 97 17 97 5 0 9 -11 9 -24z m-999 -108 c-6 -17 -9 -33 -7 -37 3 -4 0 -40 -5 -81 -5 -41 -10 -124 -10 -184 0 -60 -3 -114 -7 -120 -9 -16 -2 -150 9 -157 5 -3 9 -30 8 -60 -2 -50 7 -136 18 -184 10 -41 14 -150 5 -135 -12 19 -33 155 -37 232 -2 32 -6 62 -9 67 -9 15 -18 371 -9 371 4 0 9 57 11 127 1 69 6 131 10 137 5 6 9 37 10 70 2 32 6 64 10 70 12 18 14 -83 3 -116z m969 -92 c0 -36 -4 -67 -9 -70 -10 -7 -19 65 -13 106 8 52 22 28 22 -36z m173 25 c2 -11 1 -23 -4 -28 -8 -8 -14 -219 -8 -265 1 -9 12 -19 24 -22 11 -3 34 -19 51 -35 16 -17 34 -31 40 -31 5 0 27 -16 48 -35 21 -19 45 -35 53 -35 7 0 16 -7 19 -15 4 -8 10 -13 15 -10 4 3 13 -3 18 -13 6 -11 24 -25 41 -32 16 -7 30 -17 30 -22 0 -5 5 -6 12 -2 6 4 8 3 4 -4 -3 -6 -2 -13 4 -17 5 -3 10 -1 10 5 0 6 17 2 40 -11 36 -21 44 -30 41 -51 0 -4 6 -5 14 -2 9 4 15 0 15 -7 0 -11 2 -11 8 -2 6 9 21 3 56 -22 26 -18 61 -37 77 -40 16 -4 27 -11 23 -16 -4 -8 17 -14 39 -10 4 0 7 -4 7 -9 0 -6 9 -10 20 -10 25 0 70 -21 70 -32 0 -5 4 -7 9 -4 5 4 54 -12 108 -35 147 -62 147 -62 163 -65 41 -7 234 -66 245 -74 19 -13 104 -32 120 -27 8 4 15 2 15 -3 0 -6 5 -9 11 -8 6 2 13 -2 16 -9 5 -13 -77 -8 -86 5 -3 5 -23 8 -43 8 -21 0 -44 6 -50 13 -11 11 -10 12 1 6 10 -5 12 -4 7 4 -4 6 -12 8 -18 5 -14 -9 -130 17 -146 33 -8 7 -18 11 -23 7 -10 -6 -205 64 -279 100 -25 13 -51 21 -59 18 -8 -3 -11 -1 -8 4 3 5 -6 14 -19 21 -13 6 -21 7 -18 2 11 -19 -332 161 -346 182 -3 4 -23 16 -45 28 -22 11 -58 36 -80 56 -22 19 -59 45 -82 57 -23 11 -39 26 -36 31 4 6 0 8 -11 4 -12 -5 -19 1 -26 19 -6 15 -15 22 -21 18 -7 -4 -17 0 -23 8 -6 8 -22 20 -35 27 -19 11 -25 11 -33 0 -15 -23 0 -100 22 -116 21 -15 17 -43 -6 -43 -8 0 -14 -8 -14 -17 0 -14 -3 -14 -15 4 -17 25 -17 40 -3 228 6 72 11 155 12 185 4 106 6 120 15 120 5 0 11 -9 14 -19z m-192 -217 c-7 -56 -7 -407 0 -464 1 -8 1 -28 0 -45 l-3 -30 -8 26 c-15 52 -19 468 -5 569 11 75 26 23 16 -56z m-781 -399 c-6 -29 -7 -29 -14 13 -5 24 -4 69 0 100 l8 57 6 -70 c3 -38 3 -83 0 -100z m1140 29 c56 -36 67 -44 88 -66 9 -10 22 -18 29 -18 6 0 18 -6 25 -13 12 -13 39 -28 98 -59 29 -15 41 -29 34 -40 -3 -5 5 -6 18 -3 16 4 34 -2 57 -20 19 -14 41 -25 48 -25 7 0 13 -4 13 -9 0 -5 14 -14 30 -20 29 -10 37 -21 24 -34 -9 -9 -46 12 -39 22 2 5 -16 14 -41 20 -24 6 -42 16 -39 21 3 6 -4 10 -17 10 -28 0 -81 33 -71 45 5 4 2 5 -4 1 -8 -4 -23 4 -37 19 -14 15 -30 24 -37 20 -6 -4 -14 -3 -18 2 -3 5 -24 20 -46 33 -42 26 -42 26 -90 65 -16 14 -33 25 -37 25 -11 0 -94 58 -109 77 -12 14 -12 16 0 8 9 -5 12 -4 7 3 -4 6 -13 9 -21 5 -8 -3 -15 -1 -15 5 0 23 27 17 65 -13 22 -18 60 -45 85 -61z m-180 -86 c0 -63 23 -128 45 -128 8 0 28 -12 45 -26 17 -15 46 -34 63 -44 81 -43 102 -57 119 -77 11 -12 25 -20 33 -16 8 3 15 0 15 -5 0 -10 118 -71 168 -86 12 -4 22 -11 22 -15 0 -4 18 -14 40 -21 22 -7 40 -19 40 -27 0 -8 12 -13 30 -13 17 0 30 -4 30 -10 0 -5 6 -10 13 -10 28 0 216 -73 211 -82 -8 -13 -43 -6 -121 23 -34 12 -60 26 -57 31 3 4 -6 8 -20 8 -14 0 -26 5 -26 10 0 6 -9 10 -20 10 -19 0 -94 40 -75 40 21 1 -21 20 -43 20 -31 0 -134 49 -127 61 4 5 0 6 -7 4 -8 -3 -23 4 -35 15 -12 11 -25 20 -29 20 -17 0 -111 51 -138 74 -16 14 -37 28 -47 31 -11 4 -17 10 -14 15 3 5 -7 12 -22 16 -15 4 -34 11 -41 17 -19 15 -25 3 -24 -49 2 -76 -15 -38 -32 74 -18 117 -21 216 -6 207 6 -3 10 -33 10 -67z m-943 0 c1 -7 2 -32 4 -56 1 -24 6 -45 11 -48 4 -3 8 -20 8 -37 0 -18 14 -86 31 -152 16 -66 33 -131 36 -144 4 -17 2 -22 -6 -17 -6 4 -11 16 -11 27 0 10 -4 19 -8 19 -4 0 -8 8 -9 18 -1 9 -13 62 -26 117 -14 55 -28 118 -31 140 -17 120 -18 145 -9 145 5 0 10 -6 10 -12z m792 -195 c16 -123 16 -124 35 -208 9 -44 11 -74 5 -80 -5 -5 -9 1 -9 17 0 14 -7 44 -15 67 -8 23 -12 48 -9 55 3 8 1 17 -5 21 -6 3 -11 28 -11 55 0 27 -4 51 -10 55 -11 7 -12 115 -1 115 4 0 13 -44 20 -97z m-921 -208 c-2 -24 -6 -17 -20 37 -10 37 -15 74 -11 84 8 23 35 -80 31 -121z m1122 95 c6 -11 9 -24 6 -28 -6 -10 21 -92 36 -110 6 -7 40 -27 75 -44 34 -16 60 -34 57 -40 -3 -5 0 -8 7 -7 20 4 59 -11 59 -22 0 -5 8 -9 18 -9 10 0 28 -9 39 -19 11 -11 37 -23 57 -26 19 -4 40 -13 47 -21 6 -8 18 -14 25 -14 16 0 19 -16 4 -25 -5 -3 -10 -1 -10 4 0 6 -9 11 -20 11 -27 0 -160 67 -160 81 0 6 -6 9 -14 6 -8 -3 -25 3 -37 14 -12 11 -33 22 -45 25 -12 3 -25 12 -28 19 -3 8 -13 11 -24 8 -10 -2 -25 2 -33 10 -8 7 -20 12 -27 9 -7 -2 -12 5 -12 19 0 25 -14 75 -36 127 -8 18 -14 37 -14 42 0 17 19 11 30 -10z m-339 -84 c5 3 9 -11 9 -30 0 -20 7 -54 16 -76 9 -22 14 -46 11 -54 -3 -8 -3 -17 1 -21 4 -4 7 -10 7 -13 1 -4 11 -38 23 -77 12 -38 27 -85 33 -103 11 -35 4 -59 -7 -26 -4 10 -15 37 -25 59 -10 23 -23 63 -29 90 -8 43 -24 108 -34 140 -1 6 -6 28 -10 50 -4 22 -10 49 -12 60 -2 11 -1 14 2 7 3 -6 10 -10 15 -6z m-527 -169 c15 -50 32 -101 36 -112 37 -88 56 -145 49 -145 -5 0 -9 7 -9 17 0 9 -3 13 -7 10 -6 -7 -27 41 -39 88 -3 11 -10 29 -15 40 -16 36 -38 105 -33 105 2 0 -2 13 -11 30 -16 31 -20 60 -7 60 4 0 20 -42 36 -93z m-205 6 c13 -43 25 -87 28 -98 2 -11 8 -29 13 -40 13 -29 53 -119 58 -128 2 -4 -3 -4 -12 -1 -8 3 -15 9 -13 12 1 4 -10 32 -25 62 -14 30 -36 89 -48 130 -12 41 -26 83 -31 92 -11 22 -12 48 -1 48 5 0 19 -35 31 -77z m1137 40 c-2 -2 0 -18 5 -35 11 -40 0 -58 -17 -27 -19 35 -18 80 1 72 9 -3 14 -8 11 -10z m-171 -90 c15 -49 31 -92 35 -98 4 -5 11 -21 15 -35 7 -25 27 -74 47 -117 6 -11 8 -27 6 -34 -4 -11 -52 74 -53 93 0 3 -3 10 -7 14 -5 4 -8 16 -8 26 0 10 -4 18 -10 18 -5 0 -10 14 -10 30 0 17 -4 30 -10 30 -5 0 -12 12 -16 28 -3 15 -12 46 -20 70 -16 50 -17 62 -5 62 5 0 21 -39 36 -87z m-495 -204 c0 -10 9 -33 20 -51 22 -36 25 -48 12 -48 -5 0 -15 16 -22 35 -8 20 -20 41 -27 47 -7 6 -13 22 -13 35 0 22 2 24 15 13 8 -7 15 -21 15 -31z m-157 -72 c-4 -6 -10 -1 -15 12 -4 13 -5 28 -1 34 4 6 10 1 15 -12 4 -13 5 -28 1 -34z m-191 8 c11 -15 10 -45 -2 -45 -5 0 -6 7 -3 17 4 11 3 14 -5 9 -7 -4 -12 -5 -12 -2 0 2 -3 12 -6 21 -7 17 15 18 28 0z m758 -32 c7 -27 18 -54 23 -61 5 -7 7 -15 4 -18 -11 -11 -25 6 -32 39 -4 17 -11 37 -15 42 -16 22 -19 45 -6 45 8 0 19 -21 26 -47z m-525 -33 c20 -39 21 -67 1 -51 -25 21 -39 81 -20 81 2 0 10 -13 19 -30z m755 -4 c0 -6 11 -28 25 -49 14 -20 23 -42 20 -47 -10 -16 -25 -1 -25 23 0 12 -11 31 -25 41 -27 21 -35 59 -10 50 8 -4 15 -11 15 -18z m-963 0 c-3 -8 1 -17 9 -20 8 -3 14 -13 14 -22 0 -14 -4 -13 -20 6 -22 25 -26 50 -9 50 6 0 9 -6 6 -14z m446 -90 c9 -10 17 -26 17 -36 0 -11 9 -24 20 -30 12 -7 17 -16 13 -27 -4 -11 -3 -14 5 -9 7 4 12 5 12 2 0 -2 3 -12 7 -22 5 -14 0 -12 -19 6 -28 27 -81 119 -91 160 l-7 25 13 -26 c6 -14 20 -33 30 -43z m353 -21 c6 -27 5 -28 -9 -15 -9 8 -19 29 -23 45 -6 27 -5 28 9 15 9 -8 19 -28 23 -45z m-742 4 c-3 -5 -10 -7 -15 -3 -5 3 -7 10 -4 15 4 5 1 9 -4 9 -6 0 -11 5 -11 12 0 6 8 3 20 -7 11 -10 17 -22 14 -26z m196 22 c12 -24 13 -41 2 -41 -8 0 -32 43 -32 55 0 13 21 3 30 -14z m368 -17 c4 -33 -11 -24 -23 15 -5 17 -4 22 6 19 8 -3 15 -18 17 -34z m422 -45 c0 -10 4 -19 9 -19 13 0 22 -28 11 -35 -10 -6 -40 46 -40 70 0 9 5 13 10 10 6 -3 10 -15 10 -26z m-960 -14 c0 -7 4 -15 9 -17 4 -1 12 -14 16 -28 l8 -25 -27 28 c-25 27 -37 75 -16 62 6 -3 10 -12 10 -20z m585 -8 c7 -15 10 -29 5 -32 -9 -5 -21 8 -39 42 -9 17 -8 21 5 19 8 -1 21 -14 29 -29z m-375 4 c0 -4 -7 -8 -15 -8 -16 0 -20 9 -9 20 8 8 24 -1 24 -12z m546 -26 c9 -25 20 -45 24 -45 14 0 19 -26 8 -41 -8 -11 -9 -11 -5 3 3 9 -1 19 -8 22 -14 5 -55 76 -55 96 0 25 20 6 36 -35z m-111 -72 c11 -21 28 -44 37 -51 10 -7 18 -22 18 -33 0 -11 5 -17 10 -14 6 4 9 1 8 -7 -2 -7 3 -12 11 -10 8 2 11 -3 8 -12 -4 -9 1 -17 13 -21 12 -4 17 -12 13 -22 -4 -11 -2 -14 5 -9 7 4 12 5 12 2 0 -32 -92 62 -130 134 -7 13 -19 31 -27 39 -8 7 -12 20 -9 27 3 8 2 13 -2 13 -16 -3 -23 2 -17 11 9 15 26 -1 50 -47z m-398 31 c3 -8 1 -20 -4 -25 -7 -7 -12 -2 -15 15 -6 28 9 36 19 10z m814 -51 c8 -14 25 -38 39 -52 77 -80 130 -146 120 -149 -6 -2 -27 12 -46 32 -19 20 -31 36 -27 36 4 0 0 5 -9 11 -10 5 -18 14 -18 19 0 5 -19 29 -42 52 -52 52 -89 104 -81 112 9 8 46 -28 64 -61z m-985 0 c16 -27 29 -50 29 -53 2 -13 30 -56 46 -70 13 -10 16 -19 9 -30 -7 -12 -10 -11 -16 5 -4 11 -29 51 -56 88 -48 66 -66 107 -48 107 4 0 21 -21 36 -47z m439 -25 c22 -31 50 -70 63 -86 13 -19 18 -33 12 -37 -5 -3 -10 1 -10 10 0 9 -4 14 -9 11 -5 -3 -14 8 -20 24 -5 17 -16 30 -23 30 -17 0 -41 38 -32 52 4 6 3 8 -4 4 -10 -6 -42 29 -42 47 0 20 27 -3 65 -55z m-231 2 l7 -25 -15 25 c-17 28 -21 50 -7 35 5 -6 12 -21 15 -35z m533 7 c-2 -7 6 -21 18 -32 12 -11 46 -51 75 -90 30 -38 59 -73 64 -77 6 -4 7 -10 3 -14 -9 -9 -58 36 -51 47 3 5 -1 9 -9 9 -14 0 -57 52 -57 70 0 6 -12 22 -26 35 -24 22 -43 82 -22 69 5 -3 7 -11 5 -17z m-941 -29 c10 -12 13 -18 5 -13 -10 6 -12 2 -7 -16 9 -31 -8 -4 -18 29 -9 28 -4 28 20 0z m1480 -13 c9 -14 14 -29 10 -32 -8 -9 -57 38 -50 48 9 15 23 10 40 -16z m-1026 -31 c7 -19 14 -33 18 -30 7 7 31 -25 32 -41 0 -7 -3 -13 -7 -13 -13 1 -71 94 -70 112 1 26 14 12 27 -28z m1090 -46 c0 -13 -17 -9 -34 8 -23 22 -8 39 15 18 10 -9 19 -21 19 -26z m-1510 21 c0 -5 4 -8 9 -5 4 3 13 -5 19 -18 9 -20 8 -24 -4 -22 -17 3 -48 56 -33 56 5 0 9 -5 9 -11z m730 -82 c0 -7 9 -18 20 -25 12 -7 18 -18 14 -24 -4 -7 -17 1 -35 22 -16 18 -26 36 -23 41 7 12 24 2 24 -14z m-426 -10 c6 -9 7 -19 3 -23 -9 -9 -37 15 -37 33 0 18 20 12 34 -10z m209 -7 c10 -16 14 -30 9 -30 -14 0 -53 46 -45 53 11 12 18 8 36 -23z m301 -90 c-8 -8 -16 -4 -27 13 -21 32 -9 43 17 17 14 -14 17 -23 10 -30z m-255 27 c6 -8 8 -17 4 -20 -7 -8 -33 11 -33 24 0 13 16 11 29 -4z"/>
 <path d="M810 3285 c-7 -8 -21 -15 -31 -15 -23 0 -25 -32 -4 -50 18 -15 17 -16 38 38 18 45 17 51 -3 27z"/>
 <path d="M505 3018 c-22 -24 -50 -55 -63 -69 l-22 -25 25 -62 c14 -34 26 -75 27 -90 1 -15 7 -34 14 -42 17 -22 54 -106 54 -124 0 -9 5 -16 11 -16 5 0 8 -4 4 -10 -3 -5 -12 -7 -20 -4 -8 4 -13 9 -11 13 3 4 -6 26 -19 48 -13 23 -26 56 -30 72 -4 17 -12 31 -19 31 -7 0 -26 31 -42 69 -16 38 -33 70 -39 71 -13 4 -49 -69 -73 -148 l-19 -62 29 -68 c16 -37 30 -79 31 -93 2 -14 15 -47 30 -73 15 -27 23 -54 20 -64 -3 -9 -3 -14 2 -10 12 11 56 -55 64 -97 2 -5 13 -24 27 -42 13 -17 24 -35 24 -38 0 -3 11 -21 25 -39 14 -18 25 -39 25 -46 0 -11 3 -11 11 -3 15 15 37 362 23 371 -20 15 -54 91 -44 97 6 4 12 5 14 4 1 -2 10 -17 19 -32 23 -37 34 -28 42 36 4 28 12 61 18 72 6 11 12 36 14 55 2 19 6 59 9 88 4 32 2 52 -4 52 -6 0 -18 23 -28 50 -10 28 -22 50 -26 50 -4 0 -20 27 -35 61 l-28 60 -40 -43z"/>
 <path d="M3115 2989 c-172 -21 -345 -57 -345 -71 0 -5 -8 -8 -17 -7 -10 1 -20 0 -23 -1 -3 -1 -12 -3 -20 -6 -8 -2 -44 -12 -80 -21 -36 -10 -71 -23 -77 -30 -7 -6 -31 -14 -53 -18 -22 -4 -42 -11 -46 -16 -3 -5 -14 -9 -24 -9 -10 0 -20 -5 -22 -10 -2 -6 -13 -12 -26 -15 -13 -2 -56 -20 -95 -39 -40 -19 -85 -37 -101 -41 -15 -3 -26 -9 -23 -12 8 -7 -62 -43 -84 -43 -17 0 -49 -25 -49 -38 0 -4 13 -21 29 -38 23 -24 27 -34 18 -43 -9 -9 -8 -11 6 -6 10 4 17 2 17 -5 0 -6 4 -9 9 -6 9 6 26 -22 22 -37 -1 -5 3 -5 9 -2 6 4 19 0 28 -9 16 -14 24 -12 91 23 41 21 84 37 95 35 12 -3 15 -1 8 2 -21 10 46 47 73 40 15 -4 25 -1 29 9 3 8 11 15 17 15 7 0 46 16 87 35 68 33 122 40 106 14 -3 -5 -15 -7 -26 -3 -13 4 -18 2 -14 -4 6 -11 -18 -22 -57 -27 -12 -1 -52 -16 -88 -34 -36 -17 -73 -31 -81 -31 -9 0 -22 -7 -29 -16 -7 -9 -41 -29 -75 -45 -83 -39 -91 -50 -61 -82 13 -14 30 -27 38 -29 7 -2 17 -7 20 -12 4 -5 56 12 115 37 60 25 120 48 134 52 14 4 27 11 30 14 8 10 163 58 242 75 22 5 26 3 22 -9 -6 -14 -20 -19 -51 -18 -7 1 -13 -4 -13 -9 0 -6 -11 -7 -26 -4 -14 4 -23 3 -20 -2 3 -5 -29 -19 -71 -32 -42 -12 -97 -31 -122 -42 -49 -21 -174 -79 -180 -84 -8 -7 24 -61 35 -57 6 2 29 -13 50 -33 44 -42 78 -48 134 -21 19 9 47 18 62 21 15 3 33 8 40 13 7 4 15 8 18 9 3 0 18 6 33 12 16 7 34 12 41 12 8 0 31 7 52 16 42 18 134 44 259 75 44 11 94 23 110 29 17 5 57 12 90 15 33 4 84 15 113 26 29 10 63 19 77 19 51 0 55 7 32 59 l-20 48 -96 5 c-112 6 -335 -12 -406 -32 -16 -5 -50 -12 -74 -15 -34 -6 -42 -4 -39 6 4 13 49 26 113 33 17 2 56 9 88 16 33 6 65 9 73 6 8 -3 14 -1 14 4 0 6 5 10 11 10 5 0 7 -6 3 -12 -6 -10 -4 -10 7 -2 13 11 44 16 199 30 l66 6 -1 67 c-1 36 -5 77 -9 90 -7 21 -12 23 -55 18 -165 -19 -233 -29 -286 -43 -69 -19 -67 -18 -120 -28 -22 -4 -57 -14 -78 -22 -43 -16 -87 -18 -87 -4 0 5 12 12 28 16 15 3 42 10 59 16 18 5 38 6 44 2 7 -4 9 -3 6 3 -6 9 75 30 133 35 8 0 17 4 20 8 7 9 119 37 205 51 l70 12 -35 14 c-56 24 -80 51 -80 95 0 38 0 38 -37 37 -21 -1 -69 -5 -108 -10z m-353 -296 c-6 -2 -10 -8 -7 -13 7 -12 -17 -17 -45 -10 -25 7 -23 9 20 23 20 7 49 7 32 0z"/>
 <path d="M235 2600 c-3 -10 -27 -49 -52 -86 l-46 -67 48 -106 c26 -58 54 -130 63 -158 8 -29 19 -53 24 -53 4 0 8 -9 8 -19 0 -10 7 -21 15 -25 8 -3 15 -17 15 -31 0 -14 5 -25 10 -25 6 0 10 -5 10 -10 0 -6 8 -20 19 -31 10 -11 27 -37 37 -59 10 -22 22 -40 26 -40 4 0 12 -10 19 -21 6 -13 7 -19 1 -15 -6 3 -13 0 -16 -6 -3 -9 -8 -8 -16 5 -6 9 -16 17 -22 17 -10 0 -118 -105 -118 -114 0 -9 78 -44 112 -50 34 -6 38 -4 53 23 8 17 15 40 15 53 0 24 20 64 20 41 0 -7 12 -24 26 -38 18 -18 23 -32 19 -48 -4 -15 -3 -18 3 -9 7 11 14 7 31 -16 11 -17 21 -34 21 -39 0 -4 11 -21 23 -37 18 -22 26 -26 32 -16 5 7 4 11 -1 7 -5 -3 -9 20 -10 51 -1 64 -11 354 -13 363 0 4 -9 9 -20 12 -18 4 -51 58 -51 82 0 7 -6 15 -14 18 -17 7 -66 94 -66 118 0 11 -3 19 -8 19 -4 0 -19 21 -32 48 -14 26 -27 49 -30 52 -19 19 -110 202 -110 221 0 17 -19 9 -25 -11z"/>
 <path d="M3415 2420 c-62 -6 -104 -13 -210 -36 -16 -3 -45 -8 -63 -11 -18 -3 -35 -9 -38 -14 -3 -5 -20 -9 -38 -9 -18 0 -47 -7 -64 -16 -17 -8 -42 -16 -54 -18 -60 -7 -147 -29 -142 -37 3 -5 2 -9 -3 -10 -27 -2 -58 -11 -67 -18 -6 -5 -36 -14 -66 -21 -30 -7 -62 -15 -70 -18 -8 -3 -19 -4 -23 -3 -5 1 -6 -3 -2 -9 3 -5 1 -10 -4 -10 -6 0 -11 -8 -11 -17 0 -12 16 -25 45 -36 25 -11 43 -23 40 -28 -11 -17 48 -36 85 -27 19 5 52 13 72 17 20 4 44 15 53 24 9 9 33 21 53 26 20 6 47 17 59 26 11 8 38 17 60 20 21 4 57 15 80 25 23 11 52 21 65 24 12 3 64 14 113 26 50 12 104 23 122 25 17 2 48 11 68 20 21 8 52 15 69 16 17 0 39 3 48 7 16 7 16 10 -2 50 -21 47 -20 47 -175 32z"/>
 <path d="M3471 2279 c-41 -5 -100 -15 -130 -23 -31 -8 -80 -17 -109 -21 -28 -4 -50 -10 -47 -15 6 -9 -61 -23 -74 -15 -6 3 -12 1 -16 -5 -3 -5 -15 -10 -26 -10 -10 0 -19 -4 -19 -10 0 -12 -70 -31 -83 -23 -6 3 -7 2 -4 -4 3 -5 -19 -17 -50 -26 -68 -21 -143 -64 -143 -82 0 -7 21 -23 48 -36 26 -12 66 -35 89 -51 23 -15 54 -28 70 -28 42 0 73 -11 73 -25 0 -7 26 -23 58 -36 31 -12 60 -27 63 -31 3 -5 33 12 67 37 34 25 65 45 68 45 3 0 19 12 35 28 16 15 39 29 50 32 12 3 26 16 31 29 8 24 8 24 -44 18 -29 -3 -66 -12 -83 -21 -16 -9 -35 -16 -41 -16 -6 0 -51 -16 -98 -35 -59 -24 -93 -32 -103 -26 -13 7 -13 10 -2 17 28 18 82 32 98 27 9 -4 13 -2 8 2 -7 9 65 41 112 51 13 3 31 9 40 13 9 4 50 16 91 26 41 9 100 26 130 35 30 10 72 21 93 25 20 3 37 9 37 13 0 4 -9 39 -19 77 l-18 70 -39 1 c-22 1 -73 -2 -113 -7z"/>
 <path d="M130 2210 c-12 -12 -18 -25 -15 -30 3 -5 -1 -23 -10 -39 -8 -17 -15 -41 -15 -54 0 -13 -9 -33 -19 -44 -29 -31 -53 -94 -46 -121 5 -20 8 -22 21 -11 8 6 13 14 11 16 -8 7 153 163 168 163 21 0 19 33 -4 47 -10 6 -22 24 -26 40 -7 31 -23 53 -36 53 -5 0 -18 -9 -29 -20z"/>
 <path d="M238 2053 c-35 -39 -148 -197 -148 -207 0 -12 101 -76 120 -76 6 0 42 32 80 71 l68 71 -35 62 c-19 33 -38 67 -42 75 -11 22 -26 23 -43 4z"/>
 <path d="M3611 1862 c-46 -39 -100 -79 -118 -87 -44 -21 -38 -38 18 -47 73 -11 83 -13 97 -21 20 -13 32 2 32 42 0 23 12 59 31 94 51 95 36 100 -60 19z"/>
 <path d="M10 1797 c0 -2 12 -27 26 -57 14 -30 28 -68 31 -85 5 -29 11 -34 69 -55 43 -15 73 -33 90 -54 14 -17 23 -25 19 -18 -7 14 21 17 30 2 11 -18 43 -10 51 12 l7 23 9 -24 c6 -16 5 -27 -2 -31 -6 -4 -15 -22 -20 -41 -5 -19 -25 -77 -45 -129 -20 -52 -45 -118 -55 -146 l-18 -52 25 -38 c24 -34 25 -42 15 -78 -9 -34 -7 -46 10 -79 11 -22 23 -35 27 -31 5 5 20 43 35 84 40 111 45 120 56 120 5 0 10 9 10 19 0 11 4 22 9 25 5 3 12 22 15 41 4 20 11 33 17 30 5 -4 9 5 9 19 0 17 6 26 16 26 8 0 12 5 9 10 -8 13 36 111 47 104 4 -3 9 1 9 8 4 46 18 78 35 78 8 0 14 8 14 19 0 10 7 32 15 47 21 40 20 43 -26 104 -23 30 -47 64 -55 74 -10 15 -16 17 -27 8 -8 -7 -17 -10 -20 -7 -4 3 -5 2 -3 -1 5 -6 -41 -101 -74 -157 l-17 -28 1 33 c1 18 8 45 16 61 17 35 12 39 -75 67 -38 12 -74 26 -80 31 -5 5 -20 9 -35 9 -14 0 -56 14 -95 30 -72 31 -75 32 -75 27z"/>
 <path d="M89 1523 c37 -129 125 -208 151 -137 6 15 19 38 30 52 30 37 25 50 -22 62 -24 6 -56 16 -73 23 -16 6 -34 13 -40 14 -5 1 -20 5 -32 9 -20 6 -22 4 -14 -23z"/>
 <path d="M160 1265 c0 -54 15 -59 29 -8 11 40 7 53 -15 53 -10 0 -14 -12 -14 -45z"/>
 <path d="M857 623 c-25 -51 -79 -234 -73 -249 10 -25 23 -7 31 41 3 25 13 62 22 83 18 42 44 144 38 150 -2 2 -10 -9 -18 -25z"/>
 <path d="M1144 234 c-8 -20 -14 -37 -12 -38 85 -42 138 -64 138 -59 0 10 -94 132 -103 133 -4 0 -15 -16 -23 -36z"/>
 </g>
<g id="layer105" fill="#0083bd" stroke="none">
 <path d="M1890 3655 c-25 -14 -50 -25 -57 -25 -15 0 -129 -215 -178 -335 -130 -317 -210 -642 -246 -1000 -25 -255 3 -650 66 -913 119 -500 386 -945 740 -1235 48 -39 63 -47 84 -42 37 9 37 12 5 36 -45 34 -200 195 -247 258 -257 338 -405 792 -447 1366 -17 244 -10 454 26 745 16 132 19 146 59 334 49 236 150 530 260 764 l35 72 -28 0 c-15 -1 -47 -12 -72 -25z"/>
 <path d="M1988 3572 c-250 -469 -387 -1213 -338 -1838 32 -399 111 -718 249 -1004 118 -244 240 -399 428 -544 68 -53 72 -53 155 -16 l45 20 -123 125 c-244 250 -388 478 -500 792 -105 295 -146 548 -146 903 -1 388 58 733 189 1120 31 90 156 396 189 461 l23 47 -47 5 c-26 2 -54 7 -62 11 -11 4 -27 -17 -62 -82z"/>
 <path d="M2157 3528 c-132 -251 -246 -591 -307 -917 -69 -366 -74 -780 -15 -1104 95 -512 342 -966 674 -1231 l84 -68 43 17 c23 9 47 21 52 28 8 9 -24 49 -112 144 -185 198 -297 351 -398 548 -128 248 -209 529 -239 829 -18 185 -6 524 25 711 53 311 138 600 256 865 23 52 49 112 56 134 8 21 26 58 39 81 26 47 25 50 -24 71 -62 26 -65 23 -134 -108z"/>
 <path d="M1612 3603 c-60 -87 -172 -301 -234 -448 -49 -115 -134 -382 -162 -505 -43 -193 -59 -348 -60 -555 0 -203 10 -306 51 -505 100 -492 385 -1006 788 -1418 l120 -124 40 18 c22 10 42 20 44 21 2 2 -52 60 -120 131 -190 194 -311 358 -423 573 -257 493 -348 1069 -265 1674 43 312 142 658 265 922 20 43 43 96 50 118 8 22 24 55 34 73 11 18 20 37 20 43 0 5 -29 9 -64 9 -59 0 -66 -2 -84 -27z"/>
 <path d="M1254 3563 l-70 -35 -77 -157 c-208 -425 -310 -950 -278 -1427 37 -561 193 -1033 490 -1489 81 -123 163 -227 257 -327 l64 -68 66 8 66 7 -53 62 c-30 34 -70 83 -89 110 -19 26 -37 50 -40 53 -43 42 -179 257 -256 405 -144 279 -235 538 -303 870 -50 240 -56 308 -55 630 0 262 3 316 22 430 30 172 62 306 108 440 59 176 195 472 225 491 11 6 12 34 2 33 -5 0 -40 -16 -79 -36z"/>
 <path d="M1333 3483 c-172 -292 -273 -610 -313 -988 -16 -146 -13 -498 5 -645 63 -504 209 -931 459 -1333 95 -153 181 -262 308 -390 l117 -119 68 7 c37 4 71 10 76 14 4 4 -10 26 -30 48 -518 559 -780 1048 -880 1638 -26 157 -26 601 0 760 51 307 128 544 279 865 22 47 49 105 61 130 11 25 31 62 44 82 13 21 23 40 23 43 0 3 -33 5 -73 5 l-74 0 -70 -117z"/>
 <path d="M1035 3463 c-33 -14 -69 -29 -80 -33 -19 -7 -32 -31 -139 -275 -77 -176 -150 -474 -181 -735 -16 -136 -22 -476 -10 -588 43 -407 128 -721 282 -1044 105 -218 196 -363 350 -555 103 -128 118 -143 161 -157 55 -17 155 -36 161 -30 3 2 -11 21 -31 42 -74 76 -280 366 -358 503 -215 379 -345 786 -390 1233 -16 153 -8 574 14 706 37 232 91 446 150 602 13 35 38 100 55 146 17 45 44 109 61 142 16 33 30 62 30 65 0 8 -11 5 -75 -22z"/>
 <path d="M2316 3453 c-4 -4 -14 -23 -22 -40 -8 -18 -21 -49 -30 -69 l-15 -37 88 7 c92 7 213 33 213 47 0 14 -31 39 -48 39 -15 0 -116 34 -163 54 -8 4 -19 3 -23 -1z"/>
 <path d="M2835 3355 c-5 -2 -66 -13 -135 -25 -131 -23 -329 -76 -440 -117 -36 -14 -66 -26 -68 -28 -4 -3 -72 -202 -72 -210 0 -11 29 -4 106 29 97 41 287 106 409 140 89 24 162 41 323 73 45 10 81 20 80 24 -2 3 -32 32 -68 63 -62 54 -92 65 -135 51z"/>
 <path d="M805 3281 c-3 -6 -15 -11 -26 -11 -22 0 -24 -17 -5 -42 11 -16 14 -14 30 19 15 33 17 58 1 34z"/>
 <path d="M654 3246 c-25 -11 -34 -24 -49 -72 -18 -58 -18 -59 4 -124 31 -88 62 -160 70 -160 3 0 23 52 44 115 l37 115 -28 67 c-16 37 -32 68 -38 69 -5 2 -23 -3 -40 -10z"/>
 <path d="M2915 3160 c-181 -29 -364 -80 -585 -162 -74 -28 -139 -54 -145 -58 -5 -4 -27 -13 -47 -19 -35 -12 -39 -17 -57 -79 -28 -93 -43 -164 -36 -170 3 -3 52 18 110 47 225 112 452 195 695 256 100 25 284 64 338 71 32 4 51 11 49 18 -2 6 -35 35 -73 63 -79 60 -79 60 -249 33z"/>
 <path d="M481 2993 c-28 -31 -51 -62 -51 -68 0 -25 64 -187 117 -295 l56 -115 9 45 c5 25 18 85 29 133 10 49 19 95 19 102 0 19 -113 255 -121 255 -4 0 -30 -26 -58 -57z"/>
 <path d="M3150 2990 c-225 -27 -541 -118 -808 -231 -106 -45 -269 -125 -290 -142 -10 -8 2 -25 55 -79 37 -37 74 -68 83 -68 8 0 56 21 105 46 264 135 642 260 975 323 91 18 94 19 65 30 -51 21 -75 50 -75 93 0 43 5 41 -110 28z"/>
 <path d="M363 2879 c-20 -26 -40 -74 -57 -141 l-18 -68 37 -92 c68 -169 230 -472 247 -462 4 3 8 47 9 97 0 51 4 119 8 152 l8 60 -102 210 c-56 116 -106 221 -111 234 -8 19 -12 21 -21 10z"/>
 <path d="M3278 2789 c-188 -28 -431 -92 -637 -168 -108 -40 -348 -149 -384 -174 l-28 -19 38 -34 c21 -18 43 -33 50 -34 6 0 44 15 85 34 190 87 385 151 572 187 112 22 343 49 421 49 l51 0 -1 68 c-2 76 -11 112 -28 111 -7 -1 -69 -10 -139 -20z"/>
 <path d="M236 2602 c-4 -12 -27 -51 -52 -87 l-45 -65 61 -138 c34 -75 84 -178 110 -229 49 -92 263 -417 282 -430 8 -4 9 16 4 68 -3 41 -9 121 -12 179 l-6 105 -58 95 c-79 132 -123 213 -206 379 -57 113 -73 139 -78 123z"/>
 <path d="M3215 2573 c-160 -14 -475 -84 -590 -132 -11 -5 -51 -21 -90 -36 -96 -39 -165 -74 -165 -84 0 -5 32 -33 71 -62 66 -49 72 -51 102 -41 18 6 84 29 147 52 165 59 393 124 571 161 161 33 236 47 256 48 7 1 4 18 -10 51 l-21 50 -115 -2 c-64 -1 -134 -3 -156 -5z"/>
 <path d="M2006 2518 c-20 -128 -25 -174 -31 -258 l-6 -95 58 -46 c375 -298 816 -511 1297 -629 89 -21 197 -42 240 -46 l79 -7 -6 48 c-4 26 -7 71 -7 100 l0 52 -157 53 c-389 130 -679 272 -977 475 -87 59 -342 265 -409 329 -31 31 -62 56 -67 56 -5 0 -11 -15 -14 -32z"/>
 <path d="M3420 2415 c-112 -17 -385 -78 -491 -111 -136 -41 -343 -114 -353 -124 -5 -5 23 -29 63 -56 l71 -47 63 28 c186 82 405 155 572 189 44 9 110 23 146 31 37 8 76 15 88 15 25 0 27 20 6 60 -18 34 -28 35 -165 15z"/>
 <path d="M3510 2280 c-153 -19 -428 -94 -595 -163 -120 -49 -136 -58 -133 -70 6 -17 178 -107 204 -107 12 0 73 20 136 44 63 25 165 59 228 75 63 17 138 37 165 45 28 8 69 17 92 21 24 4 45 10 47 14 3 4 -3 38 -13 76 -21 80 -19 79 -131 65z"/>
 <path d="M1966 2093 c-3 -3 -6 -22 -6 -41 0 -29 8 -43 44 -77 133 -123 485 -341 741 -457 211 -96 547 -206 695 -228 30 -5 69 -12 86 -15 29 -6 32 -4 57 45 15 29 24 56 21 61 -3 5 -18 9 -35 9 -16 0 -55 7 -87 15 -31 8 -113 28 -182 45 -452 110 -902 324 -1245 590 -74 57 -81 61 -89 53z"/>
 <path d="M210 2000 c-50 -56 -69 -97 -69 -151 -1 -31 3 -37 35 -52 l35 -17 56 52 c79 76 80 78 41 150 -19 34 -38 63 -44 65 -5 2 -29 -20 -54 -47z"/>
 <path d="M3445 1977 c-49 -39 -113 -88 -142 -107 -29 -19 -51 -39 -50 -44 3 -9 123 -56 146 -56 31 0 190 143 185 168 -1 9 -6 38 -9 65 -5 35 -10 47 -23 47 -9 0 -57 -33 -107 -73z"/>
 <path d="M3240 1976 c-69 -24 -139 -50 -155 -59 l-30 -15 45 -20 c83 -35 84 -35 138 5 28 21 78 58 112 82 33 24 60 45 60 47 0 12 -60 -2 -170 -40z"/>
 <path d="M1974 1814 c4 -64 10 -122 12 -129 3 -7 37 -35 77 -62 362 -252 836 -450 1272 -532 152 -29 150 -29 151 18 1 22 11 54 22 73 l21 33 -152 39 c-343 86 -611 190 -891 344 -111 61 -266 157 -331 205 -112 84 -174 127 -181 127 -3 0 -3 -52 0 -116z"/>
 <path d="M327 1812 c-26 -26 -47 -50 -47 -54 0 -8 88 -38 110 -38 23 0 44 42 35 71 -4 13 -18 34 -30 46 l-22 22 -46 -47z"/>
 <path d="M3487 1763 c-13 -12 -7 -23 13 -23 11 0 20 7 20 15 0 15 -21 21 -33 8z"/>
 <path d="M185 1722 c-9 -9 -5 -56 8 -102 11 -38 20 -48 58 -67 24 -12 47 -22 51 -23 7 0 72 130 67 134 -13 9 -180 62 -184 58z"/>
 <path d="M464 1719 c-18 -22 -108 -198 -142 -274 -46 -106 -112 -281 -112 -300 0 -9 10 -31 22 -47 19 -27 20 -36 11 -71 -10 -35 -8 -47 9 -80 10 -21 21 -37 23 -35 3 2 20 48 39 101 20 53 40 104 45 114 6 10 33 69 61 131 28 62 75 158 105 212 30 54 55 104 55 110 0 12 -41 73 -82 124 -19 23 -26 25 -34 15z"/>
 <path d="M2000 1588 c0 -7 14 -67 30 -133 16 -66 30 -121 30 -122 0 -5 106 -61 245 -131 330 -166 663 -273 988 -319 27 -3 43 0 56 11 10 9 42 29 71 44 51 26 81 55 69 67 -3 3 -32 10 -65 15 -99 18 -372 89 -501 131 -284 92 -632 260 -841 405 -66 46 -82 52 -82 32z"/>
 <path d="M562 1448 c-85 -155 -150 -303 -206 -471 l-36 -108 54 -63 54 -64 17 47 c40 106 131 313 180 411 l53 105 -26 112 c-15 61 -30 114 -33 117 -3 3 -29 -36 -57 -86z"/>
 <path d="M240 1471 c0 -25 19 -38 31 -20 12 19 6 33 -14 37 -11 2 -17 -3 -17 -17z"/>
 <path d="M171 1413 c-9 -10 -10 -18 -2 -26 7 -7 12 -6 17 6 9 25 1 37 -15 20z"/>
 <path d="M2095 1233 c10 -43 95 -237 108 -249 19 -18 275 -121 405 -163 145 -48 386 -106 505 -122 l89 -12 26 33 c15 19 37 50 49 71 l23 37 -47 7 c-146 22 -510 128 -703 205 -101 40 -384 178 -425 206 -29 21 -38 17 -30 -13z"/>
 <path d="M672 1198 c-55 -91 -202 -469 -202 -519 0 -16 95 -109 111 -109 4 0 10 11 13 25 4 14 22 59 41 100 19 41 35 76 35 79 0 3 23 54 50 112 28 58 50 110 50 115 0 9 -70 222 -75 227 -2 2 -12 -12 -23 -30z"/>
 <path d="M784 918 c-19 -25 -82 -173 -119 -280 l-37 -107 38 -46 c59 -72 65 -72 90 -7 12 31 43 108 69 171 l47 115 -26 66 c-34 86 -48 107 -62 88z"/>
 <path d="M2250 894 c0 -27 147 -240 174 -252 98 -45 488 -133 631 -144 27 -2 34 6 55 55 12 28 29 60 38 70 14 16 13 17 -7 17 -12 0 -64 9 -114 21 -294 67 -506 134 -739 233 -35 15 -38 15 -38 0z"/>
 <path d="M901 571 c-20 -62 -32 -119 -48 -221 l-5 -36 103 -47 c57 -26 111 -47 120 -47 15 0 52 76 52 105 0 6 -37 72 -82 146 -45 74 -86 140 -90 148 -16 31 -29 19 -50 -48z"/>
 <path d="M811 481 c-18 -55 -30 -105 -26 -111 11 -18 23 6 30 65 4 27 11 55 15 60 9 11 25 85 18 85 -2 0 -19 -45 -37 -99z"/>
 <path d="M2480 560 c0 -7 47 -59 104 -115 118 -117 146 -129 230 -101 26 9 54 16 64 16 20 0 113 52 130 73 11 12 4 16 -43 22 -43 5 -355 80 -462 111 -15 4 -23 2 -23 -6z"/>
 <path d="M1152 245 c-19 -42 -15 -49 53 -83 36 -17 65 -30 65 -27 0 4 -77 103 -99 128 -4 4 -13 -4 -19 -18z"/>
 </g>
<g id="layer106" fill="#007ec4" stroke="none">
 <path d="M1888 3652 c-48 -23 -63 -37 -98 -92 -186 -298 -332 -783 -381 -1268 -15 -150 -7 -466 16 -637 51 -384 185 -752 381 -1046 110 -164 318 -409 349 -409 6 0 33 -19 60 -43 57 -50 76 -59 96 -46 11 8 8 14 -16 32 -35 26 -46 37 -143 143 -39 44 -90 105 -112 135 -22 30 -44 59 -50 66 -5 7 -10 15 -10 18 0 4 -13 25 -29 48 -87 128 -200 412 -262 662 -33 134 -68 390 -81 598 -12 198 -3 485 22 657 5 36 14 103 20 150 7 47 16 99 20 115 5 17 16 66 25 110 31 161 89 345 176 562 27 67 49 129 49 137 0 9 14 41 30 71 17 30 30 58 30 60 0 12 -40 2 -92 -23z"/>
 <path d="M2023 3621 c-10 -20 -31 -54 -45 -76 -70 -104 -197 -472 -250 -720 -117 -556 -115 -1174 7 -1632 55 -210 122 -390 195 -524 16 -30 40 -74 54 -99 53 -98 259 -340 290 -340 6 0 36 -20 67 -45 32 -25 60 -45 63 -45 3 0 31 11 62 25 l56 25 -48 47 c-490 479 -717 1038 -717 1768 0 470 87 893 278 1355 29 69 58 143 65 165 7 22 19 49 26 60 22 31 17 39 -36 56 l-49 17 -18 -37z"/>
 <path d="M2189 3579 c-17 -35 -35 -66 -40 -69 -14 -9 -83 -167 -132 -300 -111 -303 -169 -549 -208 -880 -16 -135 -16 -493 0 -635 41 -362 148 -694 311 -960 113 -185 268 -370 362 -432 29 -19 55 -38 58 -42 3 -4 18 -17 33 -29 27 -20 31 -21 65 -7 62 27 63 31 16 83 -24 26 -78 85 -121 132 -90 98 -209 254 -270 353 -24 38 -43 71 -43 73 0 1 -14 27 -31 56 -41 69 -130 289 -163 403 -43 145 -45 154 -68 290 -20 114 -22 166 -23 415 0 302 13 426 66 655 34 143 119 430 149 500 4 11 25 61 46 110 20 50 47 111 60 137 13 26 24 55 24 64 0 9 11 38 24 64 13 27 21 53 16 60 -4 7 -28 14 -53 17 l-45 5 -33 -63z"/>
 <path d="M1619 3603 c-8 -10 -25 -38 -39 -63 -13 -25 -34 -59 -47 -76 -27 -36 -119 -222 -162 -326 -102 -248 -167 -495 -202 -768 -16 -123 -16 -439 0 -560 31 -229 91 -462 168 -645 28 -68 144 -305 170 -350 153 -258 306 -460 486 -637 l128 -127 35 16 c19 9 34 19 34 22 0 3 -53 62 -118 131 -250 266 -401 498 -522 800 -121 301 -190 682 -190 1044 0 106 19 332 39 461 45 290 142 616 259 868 21 45 44 103 51 129 8 26 20 53 27 59 8 6 14 18 14 25 0 22 -113 19 -131 -3z"/>
 <path d="M1255 3561 c-67 -37 -72 -43 -104 -113 -19 -40 -38 -75 -41 -78 -22 -16 -101 -219 -169 -430 -53 -166 -94 -404 -112 -657 -25 -347 32 -775 150 -1131 37 -111 131 -336 170 -406 165 -301 269 -451 417 -601 86 -87 87 -88 119 -76 17 6 42 11 55 11 21 0 18 6 -29 54 -28 30 -51 59 -51 64 0 8 -11 24 -67 97 -221 287 -411 678 -510 1053 -91 344 -119 586 -110 947 8 297 44 513 128 770 52 157 201 495 218 495 5 0 11 9 14 20 7 27 3 26 -78 -19z"/>
 <path d="M1349 3501 c-156 -238 -256 -520 -316 -891 -20 -129 -29 -555 -14 -702 44 -424 170 -857 347 -1184 144 -267 262 -430 430 -595 l119 -117 50 9 c28 4 56 8 63 8 22 1 12 26 -28 65 -22 22 -40 43 -40 48 0 4 -28 38 -61 75 -153 169 -319 396 -427 584 -47 81 -152 292 -152 304 0 3 -9 24 -19 48 -29 61 -91 250 -113 342 -11 44 -31 150 -44 235 -23 143 -25 175 -21 405 4 192 10 278 26 370 49 285 130 534 268 823 34 74 63 139 63 146 0 7 14 33 30 59 17 26 30 51 30 55 0 4 -29 7 -65 7 l-64 0 -62 -94z"/>
 <path d="M1035 3459 c-22 -10 -47 -19 -56 -19 -9 0 -24 -9 -34 -20 -10 -11 -15 -20 -11 -20 4 0 -2 -12 -13 -26 -12 -15 -21 -31 -21 -35 0 -11 -28 -76 -81 -184 -117 -243 -201 -686 -200 -1063 0 -260 13 -393 62 -627 37 -180 110 -420 166 -545 87 -194 123 -260 277 -514 11 -17 40 -56 66 -86 25 -30 56 -66 67 -80 131 -159 133 -161 213 -175 72 -13 90 -15 90 -10 0 6 -60 86 -71 95 -19 15 -255 363 -298 440 -179 316 -302 656 -360 1000 -65 383 -59 754 18 1135 23 115 79 313 117 412 14 37 37 102 50 143 14 41 37 100 52 130 14 30 28 58 30 63 5 12 -21 7 -63 -14z"/>
 <path d="M2299 3413 c-6 -16 -16 -38 -21 -50 -13 -28 -2 -44 25 -38 12 3 46 7 76 9 30 3 57 10 61 17 6 8 9 8 12 -2 3 -10 12 -11 39 -3 53 15 43 37 -21 47 -30 4 -59 10 -65 11 -5 2 -14 4 -19 4 -5 0 -12 4 -15 10 -3 5 -18 12 -34 16 -23 5 -29 3 -38 -21z"/>
 <path d="M2735 3333 c-77 -13 -162 -29 -190 -35 -93 -20 -330 -100 -346 -116 -24 -24 -80 -195 -68 -206 5 -6 23 -3 46 8 122 58 434 159 618 200 39 8 95 22 125 30 30 8 68 17 84 21 l29 6 -24 25 c-31 33 -114 94 -125 93 -5 -1 -72 -12 -149 -26z"/>
 <path d="M787 3269 c-18 -11 -24 -39 -7 -39 10 0 34 39 28 45 -2 2 -11 -1 -21 -6z"/>
 <path d="M642 3243 c-6 -2 -10 -9 -6 -14 3 -5 1 -9 -4 -9 -16 0 -36 -63 -35 -112 0 -14 10 -47 22 -72 11 -25 21 -53 21 -61 0 -20 28 -75 38 -75 5 0 25 50 45 111 l38 110 -19 37 c-11 20 -25 49 -31 65 -10 26 -35 34 -69 20z"/>
 <path d="M3048 3175 c-3 -3 -51 -10 -107 -15 -177 -17 -546 -124 -758 -221 -23 -10 -46 -19 -51 -19 -15 0 -40 -34 -47 -65 -4 -16 -13 -50 -20 -75 -25 -85 -27 -100 -10 -100 8 0 61 22 118 49 154 73 231 105 357 149 142 49 244 80 330 100 102 24 327 74 348 78 12 2 22 8 22 13 0 5 -31 32 -69 60 -61 46 -98 61 -113 46z"/>
 <path d="M493 3007 c-65 -70 -65 -70 -28 -179 35 -105 111 -272 131 -289 10 -8 14 -2 19 28 4 21 14 72 22 113 9 41 18 86 20 100 4 24 -14 66 -85 207 -15 28 -30 54 -33 58 -3 3 -24 -14 -46 -38z"/>
 <path d="M3110 2980 c-197 -20 -501 -107 -765 -220 -148 -63 -295 -139 -295 -153 0 -18 122 -137 140 -137 9 0 56 21 105 46 207 106 442 192 716 264 84 22 179 47 209 55 30 8 69 15 87 15 41 0 42 14 3 30 -32 13 -60 55 -60 90 0 22 -8 23 -140 10z"/>
 <path d="M343 2843 c-11 -21 -20 -52 -19 -70 0 -17 -2 -29 -6 -27 -4 3 -11 -12 -17 -31 -8 -29 -6 -45 9 -80 11 -25 24 -64 31 -87 21 -80 206 -425 224 -421 8 2 18 105 26 283 1 24 -10 56 -37 105 -22 39 -52 99 -68 135 -16 36 -37 75 -46 87 -10 12 -27 49 -40 83 -12 33 -26 60 -29 60 -4 0 -17 -17 -28 -37z"/>
 <path d="M3335 2793 c-16 -2 -37 -7 -45 -10 -8 -3 -31 -5 -51 -4 -40 3 -272 -52 -419 -98 -131 -41 -306 -109 -423 -165 -54 -25 -100 -46 -103 -46 -3 0 -19 -9 -35 -21 l-30 -21 38 -34 c21 -18 44 -33 51 -34 7 0 34 11 60 24 77 39 277 115 387 146 149 43 282 69 445 85 80 9 161 17 180 20 19 2 40 4 47 5 8 0 10 7 4 22 -4 12 -4 36 1 52 6 20 6 41 -1 59 -11 28 -24 31 -106 20z"/>
 <path d="M229 2588 c-6 -13 -27 -47 -47 -76 l-36 -53 16 -42 c40 -101 92 -219 139 -312 56 -111 266 -432 288 -440 11 -5 13 6 7 62 -4 38 -9 115 -13 173 l-6 105 -71 120 c-40 66 -89 154 -111 195 -21 41 -55 102 -74 135 -20 33 -45 81 -55 108 -10 26 -19 47 -21 47 -3 0 -9 -10 -16 -22z"/>
 <path d="M3179 2570 c-151 -17 -459 -89 -554 -129 -11 -5 -51 -21 -90 -36 -97 -39 -165 -74 -165 -84 0 -12 136 -111 152 -111 6 0 30 8 52 19 23 10 50 21 61 24 11 3 61 20 110 37 137 47 345 105 490 135 72 14 149 33 173 41 23 8 56 14 71 14 36 0 42 15 24 58 -11 28 -18 32 -51 32 -20 0 -73 2 -117 4 -44 3 -114 1 -156 -4z"/>
 <path d="M2011 2529 c-10 -27 -27 -152 -37 -275 -6 -80 -5 -82 23 -108 15 -15 80 -65 143 -110 369 -266 739 -436 1184 -546 89 -22 175 -39 191 -38 17 0 52 -2 79 -6 47 -7 48 -6 42 16 -4 13 -10 57 -13 98 l-6 75 -61 21 c-352 124 -435 158 -666 275 -265 134 -534 319 -752 516 -35 31 -75 68 -90 81 l-27 25 -10 -24z"/>
 <path d="M3500 2419 c-14 -4 -48 -7 -76 -8 -99 -2 -456 -89 -664 -163 -47 -16 -106 -36 -132 -44 -26 -8 -50 -19 -53 -24 -8 -14 113 -90 143 -90 15 0 52 12 82 26 156 73 544 193 628 194 15 1 38 7 52 15 14 8 41 15 60 15 57 1 67 12 48 52 -16 35 -36 41 -88 27z"/>
 <path d="M3465 2272 c-110 -11 -394 -92 -550 -155 -118 -48 -136 -58 -133 -69 6 -18 177 -108 204 -108 12 0 73 20 136 44 110 43 159 59 283 91 33 9 87 24 120 35 33 10 77 21 97 25 33 5 36 8 29 28 -5 12 -9 27 -10 32 -1 6 -6 27 -12 48 l-10 38 -62 -3 c-34 -2 -75 -4 -92 -6z"/>
 <path d="M1965 2080 c-3 -5 -3 -26 1 -45 5 -29 20 -47 73 -90 208 -167 615 -402 841 -484 19 -7 44 -17 55 -22 35 -16 279 -96 315 -104 19 -4 55 -14 80 -22 25 -8 70 -17 100 -19 30 -3 70 -9 88 -14 31 -8 34 -6 58 31 14 23 27 46 30 53 5 14 -24 26 -66 26 -13 0 -42 6 -65 14 -22 7 -76 22 -120 31 -454 100 -947 330 -1302 607 -64 49 -77 55 -88 38z"/>
 <path d="M233 2011 c-13 -11 -23 -24 -23 -30 0 -6 -8 -15 -19 -20 -19 -11 -42 -99 -34 -131 8 -31 43 -31 89 1 59 40 87 78 73 95 -6 8 -8 14 -5 14 4 0 -1 12 -12 28 -10 15 -22 35 -25 45 -8 21 -16 21 -44 -2z"/>
 <path d="M3480 2000 c-12 -16 -26 -30 -32 -30 -5 0 -29 -18 -52 -40 -23 -22 -64 -54 -91 -71 -44 -28 -48 -33 -30 -39 11 -5 44 -18 74 -29 l54 -21 19 20 c10 11 24 20 31 20 11 0 78 59 104 93 12 15 11 66 -2 108 -10 30 -50 24 -75 -11z"/>
 <path d="M3305 1995 c-16 -7 -64 -25 -105 -40 -41 -14 -82 -30 -90 -34 -28 -15 -15 -33 33 -49 43 -14 49 -14 65 2 10 9 24 16 30 16 6 0 16 9 22 20 6 11 15 20 21 20 6 0 36 18 66 40 l56 40 -34 -1 c-19 0 -47 -6 -64 -14z"/>
 <path d="M1974 1814 c4 -64 10 -122 13 -130 4 -12 139 -105 271 -186 90 -55 392 -201 507 -243 275 -103 552 -173 688 -175 24 0 27 4 27 31 0 17 9 44 21 60 25 36 20 45 -33 54 -22 4 -55 13 -72 20 -17 7 -70 23 -116 34 -115 28 -282 83 -415 138 -229 93 -552 269 -709 385 -112 84 -175 128 -182 128 -3 0 -3 -52 0 -116z"/>
 <path d="M336 1811 c-39 -40 -39 -41 -21 -61 10 -11 26 -20 35 -20 22 0 32 24 17 40 -10 10 -7 10 11 1 12 -6 22 -19 22 -28 0 -12 3 -14 10 -7 13 13 2 74 -13 71 -6 -1 -13 8 -16 21 -6 22 -7 22 -45 -17z"/>
 <path d="M453 1699 c-49 -80 -153 -301 -178 -379 -16 -47 -37 -105 -47 -130 l-20 -45 23 -42 c20 -37 22 -48 13 -82 -9 -34 -8 -45 7 -71 10 -16 21 -30 23 -30 2 0 14 30 25 68 26 81 52 142 61 142 3 0 12 17 19 38 18 51 138 297 173 353 15 25 28 52 28 58 0 13 -40 73 -83 125 l-24 29 -20 -34z"/>
 <path d="M196 1695 c-3 -9 -3 -22 1 -28 3 -6 7 -25 8 -43 3 -39 18 -56 62 -72 30 -10 34 -9 51 16 29 44 46 82 39 88 -7 7 -99 42 -133 51 -14 3 -23 -1 -28 -12z"/>
 <path d="M2006 1591 c-3 -5 3 -49 14 -98 36 -153 39 -161 84 -187 63 -37 361 -185 403 -201 21 -7 63 -23 93 -35 209 -82 478 -156 623 -171 98 -11 100 -11 156 16 80 39 111 63 104 80 -3 8 -17 15 -32 15 -15 0 -51 7 -81 15 -30 9 -96 27 -146 40 -199 52 -288 77 -362 104 -290 105 -568 245 -824 414 -15 11 -29 14 -32 8z"/>
 <path d="M590 1498 c-71 -114 -190 -380 -218 -488 -11 -41 -25 -88 -31 -103 -6 -16 -11 -34 -11 -40 1 -12 82 -107 93 -107 3 0 13 21 23 48 10 26 23 56 30 67 7 11 32 65 54 120 23 55 66 147 95 205 l53 105 -26 113 c-15 61 -30 112 -34 112 -5 0 -17 -15 -28 -32z"/>
 <path d="M2100 1228 c1 -33 92 -239 110 -248 52 -26 151 -70 158 -70 4 0 26 -9 48 -19 58 -28 261 -95 394 -129 140 -36 166 -41 255 -53 39 -5 86 -12 105 -15 35 -6 37 -4 79 56 46 65 45 79 -5 80 -12 0 -41 7 -64 15 -23 8 -97 28 -164 45 -141 34 -318 91 -466 150 -104 41 -396 183 -414 201 -18 16 -36 9 -36 -13z"/>
 <path d="M672 1200 c-25 -40 -129 -286 -146 -345 -10 -33 -24 -80 -33 -104 -29 -80 -27 -85 74 -170 8 -7 16 2 28 32 9 23 34 78 55 122 21 44 57 121 80 170 l42 90 -27 85 c-47 151 -50 156 -73 120z"/>
 <path d="M783 918 c-31 -50 -90 -193 -115 -283 -11 -38 -24 -75 -29 -82 -14 -16 -1 -38 50 -87 36 -35 41 -37 47 -20 3 10 23 55 44 99 20 44 50 112 65 151 l27 71 -32 76 c-34 82 -44 95 -57 75z"/>
 <path d="M2250 891 c0 -4 11 -25 25 -45 14 -20 25 -40 25 -43 0 -16 108 -153 127 -162 23 -10 208 -65 253 -74 14 -3 54 -13 90 -22 36 -9 101 -20 145 -25 44 -5 100 -12 126 -16 l45 -6 27 63 c15 35 27 67 27 72 0 4 -13 7 -30 7 -16 0 -49 6 -72 14 -24 8 -93 26 -154 40 -130 30 -401 118 -524 170 -86 37 -110 43 -110 27z"/>
 <path d="M902 573 c-12 -37 -26 -97 -31 -133 -5 -36 -13 -79 -16 -95 -7 -31 -6 -31 99 -79 58 -27 112 -46 119 -43 8 3 22 30 32 60 l17 55 -36 57 c-34 52 -117 191 -135 224 -16 31 -29 19 -49 -46z"/>
 <path d="M2485 560 c-6 -10 134 -156 177 -184 57 -38 104 -48 145 -31 18 8 36 14 38 14 42 -3 159 54 152 74 -2 7 -24 15 -48 18 -24 4 -62 12 -84 19 -117 34 -376 96 -380 90z"/>
 <path d="M785 397 c-4 -10 -5 -21 -1 -24 10 -10 18 4 13 24 -4 17 -4 17 -12 0z"/>
 <path d="M1151 228 c-6 -17 -10 -32 -9 -33 32 -20 108 -53 108 -46 0 8 -78 111 -85 111 -2 0 -8 -14 -14 -32z"/>
 </g>
<g id="layer107" fill="#008ed5" stroke="none">
 <path d="M1887 3652 c-56 -27 -61 -33 -118 -132 -169 -298 -306 -754 -350 -1172 -33 -306 -1 -764 71 -1013 85 -296 160 -469 288 -675 118 -189 271 -370 404 -478 84 -68 107 -82 124 -75 22 8 17 18 -22 45 -65 46 -224 230 -303 349 -162 244 -282 576 -340 944 -76 482 -43 1085 85 1550 58 209 179 537 251 678 8 15 -34 6 -90 -21z"/>
 <path d="M2021 3617 c-12 -23 -34 -62 -48 -87 -32 -54 -110 -245 -146 -356 -168 -520 -225 -1132 -152 -1649 74 -521 254 -949 510 -1209 57 -57 184 -160 216 -174 3 -2 33 9 65 23 l58 26 -41 37 c-65 58 -227 236 -286 315 -219 292 -361 656 -424 1082 -21 149 -24 598 -4 745 44 330 108 591 210 858 63 162 127 318 148 359 20 37 22 34 -38 55 l-46 16 -22 -41z"/>
 <path d="M2168 3539 c-130 -244 -249 -588 -307 -889 -48 -249 -61 -391 -61 -642 0 -374 51 -660 172 -968 110 -279 328 -595 503 -728 33 -25 62 -49 65 -52 3 -3 18 -16 33 -28 27 -20 31 -21 65 -7 65 28 65 28 -35 133 -366 388 -559 755 -642 1217 -95 532 -9 1154 239 1735 34 80 71 170 82 200 12 30 27 64 34 75 19 29 3 46 -48 52 l-45 5 -55 -103z"/>
 <path d="M1602 3574 c-15 -25 -42 -69 -60 -97 -41 -65 -128 -245 -172 -357 -18 -47 -39 -98 -46 -115 -7 -16 -28 -83 -48 -147 -118 -378 -148 -791 -85 -1168 68 -408 248 -811 531 -1192 101 -136 240 -294 334 -381 l69 -64 33 15 c18 9 31 19 30 22 -2 4 -58 65 -124 136 -149 158 -194 213 -290 355 -190 282 -327 649 -389 1049 -23 144 -31 515 -16 677 22 226 63 446 117 628 14 50 28 99 31 110 3 11 9 29 13 40 5 11 26 65 46 120 20 55 51 132 68 170 18 39 43 97 56 130 13 33 29 69 37 80 21 31 16 35 -47 35 l-60 0 -28 -46z"/>
 <path d="M1257 3562 l-68 -37 -79 -160 c-177 -357 -267 -744 -277 -1185 -7 -306 18 -535 88 -814 112 -448 362 -919 648 -1221 83 -88 83 -88 115 -77 18 7 43 12 56 12 21 0 18 5 -26 54 -184 201 -409 576 -522 871 -158 411 -226 772 -226 1200 0 465 86 829 295 1250 27 55 56 110 65 123 22 30 10 28 -69 -16z"/>
 <path d="M1367 3527 c-118 -192 -160 -282 -227 -487 -95 -288 -124 -485 -124 -845 0 -230 3 -293 22 -425 44 -296 140 -637 241 -855 43 -91 99 -206 118 -240 149 -260 240 -384 397 -542 l121 -121 50 8 c28 5 56 9 63 9 19 1 14 26 -10 47 -30 26 -161 180 -268 313 -502 626 -714 1334 -615 2051 46 333 143 621 349 1040 28 57 52 107 54 110 1 3 -27 5 -63 5 l-66 0 -42 -68z"/>
 <path d="M1035 3459 c-22 -10 -47 -19 -56 -19 -9 0 -24 -9 -34 -20 -10 -11 -15 -20 -11 -20 4 0 -2 -12 -13 -26 -12 -15 -21 -31 -21 -35 0 -9 -18 -52 -72 -169 -62 -135 -132 -383 -167 -595 -126 -757 40 -1529 465 -2160 40 -60 91 -130 113 -155 21 -25 63 -74 92 -109 52 -62 72 -74 139 -86 72 -14 90 -15 90 -9 0 3 -19 29 -42 57 -55 64 -118 152 -216 297 -291 430 -453 883 -507 1423 -43 430 15 883 166 1298 23 63 52 145 65 184 14 38 31 80 40 92 8 13 19 34 24 48 12 30 2 31 -55 4z"/>
 <path d="M2740 3334 c-140 -25 -395 -92 -490 -129 l-55 -21 -35 -101 c-19 -56 -32 -104 -28 -108 3 -4 23 2 45 13 117 60 439 159 718 222 152 34 141 28 113 57 -30 32 -113 93 -124 92 -5 -1 -70 -12 -144 -25z"/>
 <path d="M787 3269 c-18 -11 -24 -39 -7 -39 10 0 34 39 28 45 -2 2 -11 -1 -21 -6z"/>
 <path d="M642 3244 c-6 -3 -10 -10 -6 -15 3 -5 1 -9 -5 -9 -9 0 -21 -26 -27 -56 -1 -6 -5 -21 -8 -32 -8 -23 67 -232 83 -232 3 0 21 49 40 109 l33 109 -25 63 c-21 51 -30 64 -49 66 -13 1 -29 -1 -36 -3z"/>
 <path d="M3059 3176 c-2 -2 -48 -9 -102 -15 -208 -23 -548 -124 -786 -232 -70 -32 -72 -34 -86 -83 -37 -134 -43 -166 -31 -166 7 0 58 22 114 50 309 152 567 233 1040 326 12 2 22 8 22 13 0 5 -31 32 -69 60 -62 46 -90 59 -102 47z"/>
 <path d="M492 3006 c-64 -69 -64 -71 -31 -165 33 -96 128 -301 140 -301 4 0 11 21 15 48 3 26 15 85 25 131 l18 83 -60 124 c-33 68 -61 124 -63 124 -2 0 -22 -20 -44 -44z"/>
 <path d="M3117 2979 c-150 -17 -403 -83 -617 -162 -185 -67 -445 -191 -445 -213 0 -5 30 -38 68 -73 l67 -63 123 60 c241 120 428 187 747 268 118 29 230 54 248 54 42 0 41 10 -6 35 -30 16 -39 28 -46 63 -11 47 -8 47 -139 31z"/>
 <path d="M343 2843 c-11 -21 -20 -52 -19 -70 0 -17 -2 -29 -6 -27 -4 3 -11 -11 -16 -30 -9 -30 -4 -49 28 -136 38 -99 147 -317 208 -415 l30 -48 6 64 c3 35 8 105 11 156 l6 92 -89 178 c-48 98 -97 199 -107 226 -10 26 -21 47 -25 47 -3 0 -16 -17 -27 -37z"/>
 <path d="M3335 2793 c-16 -2 -37 -6 -45 -9 -8 -3 -37 -7 -65 -9 -108 -7 -486 -116 -670 -192 -108 -45 -315 -146 -315 -154 0 -4 17 -21 38 -38 l39 -30 113 50 c144 65 342 130 492 163 108 24 420 66 495 66 29 0 32 2 24 22 -4 12 -4 36 1 52 6 20 6 41 -1 59 -11 28 -24 31 -106 20z"/>
 <path d="M231 2590 c-7 -14 -29 -49 -49 -78 l-36 -53 16 -42 c39 -101 118 -270 172 -365 63 -112 216 -345 248 -377 l20 -20 -6 53 c-4 29 -11 109 -16 176 l-8 124 -72 118 c-39 65 -98 170 -131 233 -32 64 -65 127 -73 141 -8 14 -24 45 -34 70 l-18 45 -13 -25z"/>
 <path d="M3210 2569 c-232 -23 -543 -106 -748 -200 -105 -48 -105 -44 -7 -114 l61 -44 134 50 c188 71 452 144 655 183 44 8 96 20 115 26 19 5 47 10 61 10 34 0 40 16 22 58 -13 31 -14 32 -77 32 -35 0 -76 2 -92 4 -16 2 -72 0 -124 -5z"/>
 <path d="M1997 2413 c-9 -71 -19 -153 -22 -185 l-5 -56 48 -39 c348 -285 782 -501 1246 -623 84 -22 186 -44 227 -50 40 -5 91 -12 113 -15 37 -6 38 -6 32 17 -4 12 -10 57 -13 98 l-6 76 -51 16 c-260 83 -460 164 -671 272 -309 159 -563 335 -785 544 -41 39 -80 71 -86 72 -7 0 -17 -50 -27 -127z"/>
 <path d="M3495 2419 c-27 -4 -86 -12 -130 -18 -129 -18 -396 -87 -590 -152 -99 -33 -184 -64 -188 -69 -5 -4 19 -27 53 -50 67 -45 87 -47 161 -9 53 27 292 114 381 138 98 28 287 70 355 79 29 5 56 11 59 15 11 11 -22 74 -38 73 -7 0 -35 -3 -63 -7z"/>
 <path d="M3480 2270 c-88 -11 -261 -53 -395 -96 -127 -42 -305 -114 -305 -125 0 -7 147 -87 188 -102 16 -7 52 3 140 37 64 25 167 59 227 76 208 57 250 69 287 75 35 7 36 8 27 33 -6 15 -10 27 -9 27 1 0 -3 19 -9 43 -13 47 -15 48 -151 32z"/>
 <path d="M1970 2047 c0 -41 2 -44 83 -107 405 -317 924 -555 1425 -653 l74 -14 24 39 c40 63 40 65 -8 73 -200 30 -586 144 -813 240 -192 81 -466 239 -661 381 -63 46 -117 84 -120 84 -2 0 -4 -19 -4 -43z"/>
 <path d="M3496 1975 c-19 -28 -20 -35 -6 -35 6 0 10 7 10 15 0 8 7 15 15 15 8 0 15 7 15 15 0 23 -16 18 -34 -10z"/>
 <path d="M3254 1949 c-9 -14 30 -19 44 -5 12 12 11 14 -13 13 -15 -1 -29 -5 -31 -8z"/>
 <path d="M1970 1909 c2 -77 20 -222 30 -234 31 -37 301 -200 479 -289 281 -141 714 -282 929 -302 l72 -7 0 33 c0 17 9 45 21 62 12 16 18 32 14 36 -4 4 -28 12 -53 18 -525 127 -954 318 -1340 597 -63 45 -123 88 -133 96 -17 12 -19 11 -19 -10z"/>
 <path d="M3503 1905 c-19 -21 -16 -35 7 -35 15 0 20 7 20 25 0 28 -9 31 -27 10z"/>
 <path d="M3396 1879 c-11 -10 -30 -19 -43 -19 -13 0 -22 -4 -19 -9 4 -5 0 -11 -6 -14 -10 -4 105 -1 120 2 1 1 -4 15 -13 31 -18 35 -15 34 -39 9z"/>
 <path d="M462 1708 c-31 -38 -146 -283 -196 -415 l-57 -153 23 -39 c20 -35 21 -44 12 -80 -9 -35 -8 -45 8 -72 10 -17 21 -29 23 -27 3 2 18 42 34 89 35 104 141 333 215 467 31 55 56 103 56 106 0 7 -100 136 -105 136 -1 0 -7 -6 -13 -12z"/>
 <path d="M222 1679 c2 -6 8 -10 13 -10 5 0 11 4 13 10 2 6 -4 11 -13 11 -9 0 -15 -5 -13 -11z"/>
 <path d="M293 1637 c-4 -8 -16 -16 -25 -20 -23 -8 -23 -37 0 -37 15 0 52 45 52 64 0 11 -19 6 -27 -7z"/>
 <path d="M2010 1575 c0 -21 37 -187 49 -217 10 -27 41 -46 211 -135 287 -150 708 -293 957 -324 90 -11 92 -11 150 16 123 58 139 88 52 98 -27 3 -73 13 -102 22 -28 8 -106 28 -172 44 -368 91 -751 259 -1076 474 -62 41 -69 44 -69 22z"/>
 <path d="M578 1469 c-76 -137 -181 -369 -202 -449 -4 -14 -17 -55 -28 -92 -18 -55 -19 -70 -9 -82 8 -9 17 -13 22 -10 5 3 8 1 7 -4 -4 -11 42 -72 53 -72 4 0 17 25 28 55 11 30 25 63 30 72 6 10 29 63 52 118 23 55 64 145 91 200 l50 99 -22 101 c-13 55 -26 106 -30 114 -5 9 -18 -7 -42 -50z"/>
 <path d="M2101 1232 c0 -9 21 -66 47 -127 l47 -110 65 -32 c188 -92 552 -210 743 -242 37 -6 96 -16 131 -22 67 -11 86 -8 86 17 0 8 4 14 9 14 4 0 21 19 36 41 28 43 24 58 -15 59 -23 0 -363 88 -455 117 -152 48 -390 147 -542 224 -120 61 -153 75 -152 61z"/>
 <path d="M679 1199 c-60 -96 -208 -477 -194 -500 4 -5 2 -9 -3 -9 -20 0 1 -39 35 -67 19 -15 41 -34 48 -40 11 -11 17 -3 34 42 11 30 25 63 31 72 5 10 39 82 74 161 l64 143 -37 111 c-36 107 -37 110 -52 87z"/>
 <path d="M758 854 c-44 -95 -51 -112 -93 -233 l-33 -94 45 -49 c43 -46 63 -53 63 -23 0 7 13 42 29 77 16 35 45 102 65 150 l36 86 -38 83 -38 82 -36 -79z"/>
 <path d="M2276 852 c15 -27 50 -82 78 -123 48 -69 55 -75 116 -97 102 -37 358 -100 453 -112 47 -6 103 -13 124 -16 l39 -5 27 63 c15 35 27 66 27 71 0 4 -12 7 -27 7 -15 0 -52 6 -82 14 -31 8 -105 27 -166 41 -146 36 -332 96 -483 156 -67 27 -125 49 -128 49 -3 0 7 -22 22 -48z"/>
 <path d="M927 633 c-16 -28 -75 -275 -77 -319 0 -8 213 -95 223 -91 8 3 22 28 31 57 l17 51 -33 52 c-17 29 -60 98 -94 155 -35 56 -65 99 -67 95z"/>
 <path d="M2490 559 c0 -15 135 -157 173 -183 55 -38 103 -48 144 -31 18 8 36 14 38 14 38 -3 155 52 155 71 0 5 -10 12 -22 14 -55 11 -340 81 -410 101 -43 13 -78 19 -78 14z"/>
 <path d="M785 397 c-4 -10 -5 -21 -1 -24 10 -10 18 4 13 24 -4 17 -4 17 -12 0z"/>
 <path d="M1151 228 c-6 -17 -10 -32 -9 -33 32 -20 108 -53 108 -46 0 8 -78 111 -85 111 -2 0 -8 -14 -14 -32z"/>
 </g>
<g id="layer108" fill="#00a7fd" stroke="none">
 <path d="M1974 3528 c-18 -28 -68 -148 -110 -268 -156 -439 -223 -866 -211 -1343 8 -292 32 -483 88 -712 24 -97 84 -285 109 -340 9 -22 21 -51 25 -65 11 -35 74 -158 105 -205 15 -22 48 -72 73 -111 26 -39 84 -110 130 -159 l85 -88 43 7 c24 5 54 9 67 9 46 4 37 35 -32 108 -82 86 -168 193 -228 285 -66 99 -198 364 -198 396 0 8 -4 18 -9 24 -11 12 -65 179 -90 279 -50 205 -71 396 -71 658 0 360 44 657 147 997 47 157 83 255 152 417 38 88 38 99 4 107 -16 3 -38 8 -49 12 -13 3 -25 0 -30 -8z"/>
 <path d="M2199 3513 c-44 -5 -56 -18 -93 -103 -46 -104 -81 -196 -112 -290 -8 -25 -19 -54 -24 -65 -16 -36 -82 -298 -106 -418 -156 -783 -18 -1542 375 -2062 94 -124 216 -253 248 -261 13 -4 38 1 57 10 19 9 39 16 45 16 24 0 7 25 -81 118 -447 474 -650 1137 -573 1867 38 362 126 687 285 1049 49 113 56 148 28 144 -7 -1 -29 -3 -49 -5z"/>
 <path d="M1815 3502 c-22 -2 -46 -8 -53 -15 -8 -6 -32 -49 -54 -96 -310 -663 -384 -1476 -192 -2123 119 -400 275 -675 566 -992 42 -46 61 -60 86 -62 18 -1 32 0 32 3 0 3 -30 37 -67 77 -108 116 -166 203 -261 391 -84 166 -114 244 -162 415 -199 717 -136 1636 159 2329 17 40 31 75 31 77 0 2 -10 3 -22 1 -13 -1 -41 -3 -63 -5z"/>
 <path d="M1593 3488 c-31 -7 -47 -17 -61 -41 -108 -177 -233 -495 -298 -757 -65 -267 -89 -601 -60 -843 28 -223 78 -448 126 -562 5 -11 21 -51 35 -90 95 -254 254 -521 468 -791 57 -71 131 -159 164 -194 l59 -63 32 14 c18 8 32 18 32 24 0 5 -26 35 -56 65 -189 185 -390 499 -497 775 -127 331 -179 627 -179 1020 0 279 24 488 86 760 19 79 100 342 123 395 8 19 19 44 23 55 43 109 84 202 91 210 5 5 9 15 9 22 0 15 -35 15 -97 1z"/>
 <path d="M1332 3453 c-30 -29 -66 -99 -126 -243 -217 -526 -252 -1166 -97 -1774 43 -165 75 -274 97 -323 8 -17 14 -36 14 -42 0 -6 4 -19 10 -29 5 -9 27 -60 49 -114 23 -53 54 -120 69 -150 16 -29 48 -89 72 -133 23 -44 51 -92 61 -107 11 -14 19 -29 19 -33 0 -3 13 -23 28 -43 16 -20 62 -81 102 -135 80 -108 96 -121 153 -131 21 -4 58 -18 82 -32 43 -24 75 -31 75 -16 0 4 -51 66 -113 139 -61 72 -139 168 -172 214 -51 71 -78 111 -162 245 -35 56 -150 281 -185 364 -47 110 -104 279 -124 365 -7 33 -20 89 -28 125 -58 259 -62 668 -10 935 31 159 45 221 66 285 11 36 24 79 28 95 25 94 101 279 182 444 25 53 43 99 40 102 -4 4 -28 10 -54 13 -43 6 -50 4 -76 -21z"/>
 <path d="M1174 3385 c-10 -8 -26 -15 -35 -15 -14 0 -59 -50 -59 -66 0 -3 -7 -20 -14 -37 -84 -182 -185 -567 -217 -827 -17 -134 -17 -524 0 -655 65 -522 227 -958 509 -1370 96 -139 165 -224 193 -235 29 -12 84 -5 95 11 3 6 -32 60 -78 122 -46 62 -99 137 -118 167 -49 81 -170 300 -170 309 0 4 -16 41 -36 82 -20 40 -45 99 -56 129 -11 30 -26 69 -33 85 -14 33 -31 86 -76 245 -141 493 -157 1079 -42 1540 42 169 114 375 167 475 28 53 13 73 -30 40z"/>
 <path d="M954 3268 c-20 -29 -60 -72 -89 -95 -48 -38 -54 -48 -83 -135 -83 -252 -127 -466 -152 -743 -45 -500 82 -1118 327 -1587 97 -184 230 -387 276 -421 35 -26 171 -81 187 -75 10 3 -45 91 -93 148 -25 30 -187 293 -187 304 0 3 -13 27 -28 53 -73 123 -199 460 -247 659 -123 508 -113 1081 27 1559 29 99 72 229 102 304 30 75 31 81 12 81 -8 0 -31 -24 -52 -52z"/>
 <path d="M2495 3275 c-66 -18 -158 -46 -205 -62 l-85 -29 -32 -79 c-34 -85 -42 -131 -20 -122 93 42 235 95 327 123 63 19 131 40 150 46 19 6 79 21 133 33 54 12 101 25 104 29 4 4 -8 20 -27 36 -26 23 -45 30 -76 30 -22 0 -63 7 -90 15 -59 18 -35 20 -179 -20z"/>
 <path d="M2700 3105 c-187 -48 -387 -116 -512 -174 l-84 -39 -23 -84 c-12 -45 -24 -91 -27 -100 -8 -26 4 -23 118 31 292 137 506 210 811 276 42 9 77 19 77 22 0 2 -24 29 -54 59 -49 49 -57 54 -97 53 -24 0 -118 -20 -209 -44z"/>
 <path d="M720 3118 c0 -16 -40 -99 -57 -120 -17 -19 -9 -78 10 -78 7 0 25 42 41 93 16 50 31 98 34 105 2 6 -3 12 -12 12 -9 0 -16 -5 -16 -12z"/>
 <path d="M3025 2959 c-222 -43 -496 -127 -680 -209 -97 -43 -252 -120 -270 -134 -19 -14 -19 -16 28 -64 83 -84 78 -84 219 -14 68 34 148 71 178 82 30 12 78 31 105 42 115 46 281 98 408 128 74 18 140 36 147 40 9 6 8 15 -4 38 -9 17 -16 39 -16 49 -1 10 -6 27 -13 39 -12 21 -12 21 -102 3z"/>
 <path d="M533 2866 c-29 -30 -53 -60 -53 -67 0 -20 108 -239 118 -239 4 0 18 55 30 123 l23 123 -25 57 c-14 31 -29 57 -33 57 -5 0 -32 -24 -60 -54z"/>
 <path d="M3015 2725 c-93 -24 -197 -53 -230 -65 -33 -12 -67 -23 -75 -25 -74 -18 -441 -182 -454 -204 -6 -10 48 -61 65 -61 5 0 33 12 62 26 85 42 267 110 378 143 149 43 244 61 409 80 l145 16 0 50 c1 100 -44 106 -300 40z"/>
 <path d="M417 2673 c-9 -21 -27 -58 -41 -82 -28 -50 -27 -74 9 -131 12 -19 26 -46 30 -60 4 -14 13 -32 19 -40 7 -8 24 -38 39 -66 15 -28 33 -62 39 -75 20 -36 47 -73 51 -68 2 2 8 65 14 139 l10 135 -46 90 c-25 50 -57 114 -69 143 -13 28 -27 52 -31 52 -5 0 -15 -17 -24 -37z"/>
 <path d="M3100 2549 c-131 -19 -270 -52 -405 -96 -95 -30 -315 -123 -315 -132 1 -7 71 -59 116 -85 28 -17 34 -17 65 -3 60 26 162 64 224 82 33 9 70 21 83 26 39 15 323 86 420 105 53 10 96 23 99 30 3 7 -3 31 -13 54 l-18 40 -65 -1 c-36 -1 -122 -10 -191 -20z"/>
 <path d="M2016 2513 c-9 -31 -36 -252 -36 -298 0 -43 3 -46 68 -98 83 -66 231 -169 337 -234 86 -53 399 -213 415 -213 6 0 29 -9 53 -20 111 -51 442 -149 623 -185 l32 -6 -4 102 c-4 111 -5 112 -68 130 -155 43 -654 266 -702 314 -9 8 -20 15 -26 15 -6 0 -33 16 -59 35 -27 19 -51 35 -54 35 -9 0 -144 92 -221 151 -78 59 -227 183 -294 246 -51 48 -56 50 -64 26z"/>
 <path d="M271 2425 c-17 -29 -21 -52 -21 -123 l0 -87 61 -110 c33 -61 76 -133 95 -162 19 -28 34 -56 34 -61 0 -6 4 -12 8 -14 4 -1 37 -45 72 -97 35 -52 66 -89 68 -83 2 7 -1 60 -7 119 -6 58 -11 126 -11 150 0 34 -10 59 -48 121 -56 89 -110 184 -167 296 -23 44 -46 81 -52 83 -6 2 -20 -12 -32 -32z"/>
 <path d="M3279 2380 c-228 -47 -609 -159 -674 -197 -20 -12 -19 -12 5 -30 14 -10 44 -28 67 -40 l41 -23 116 50 c184 79 417 150 614 186 12 2 22 10 22 18 0 15 -38 66 -48 65 -4 0 -68 -13 -143 -29z"/>
 <path d="M3365 2245 c-147 -34 -317 -84 -390 -115 -22 -9 -63 -25 -91 -35 -28 -10 -62 -26 -74 -35 -22 -17 -22 -17 68 -63 50 -26 99 -47 110 -47 18 0 70 18 117 41 37 17 259 86 339 105 43 10 80 24 83 31 3 7 1 26 -5 41 -6 15 -13 44 -17 65 -7 44 -3 43 -140 12z"/>
 <path d="M1976 2073 c-14 -15 -4 -54 21 -79 37 -37 243 -188 327 -239 85 -52 217 -125 226 -125 5 0 10 -4 10 -9 0 -5 9 -13 21 -16 11 -4 67 -28 122 -55 56 -26 140 -63 187 -83 171 -70 514 -172 542 -161 7 2 21 23 30 45 21 49 34 42 -182 94 -162 40 -336 96 -455 147 -38 16 -83 35 -99 41 -89 36 -385 194 -417 223 -8 8 -19 14 -23 14 -10 0 -116 72 -206 140 -92 69 -96 71 -104 63z"/>
 <path d="M1983 1810 c3 -55 11 -109 17 -120 20 -37 229 -168 440 -277 116 -59 253 -123 264 -123 3 0 25 -9 49 -19 122 -56 558 -180 589 -168 9 3 18 25 22 53 3 26 11 53 18 61 16 20 3 28 -77 47 -96 23 -318 93 -385 121 -234 98 -358 156 -455 212 -191 111 -261 156 -379 245 -50 37 -95 68 -100 68 -5 0 -6 -43 -3 -100z"/>
 <path d="M449 1673 c-14 -21 -53 -99 -89 -173 -78 -164 -88 -225 -47 -300 29 -53 52 -62 61 -24 4 14 50 113 103 219 l96 193 -47 61 c-26 33 -49 61 -50 61 -2 0 -14 -17 -27 -37z"/>
 <path d="M2010 1586 c0 -3 12 -56 26 -117 20 -83 33 -118 50 -134 26 -24 74 -51 239 -132 61 -29 117 -57 125 -62 86 -47 400 -153 597 -202 117 -29 136 -31 158 -19 14 7 25 19 25 26 0 7 19 28 41 48 42 35 42 35 18 44 -13 5 -67 19 -119 32 -52 12 -144 38 -205 58 -60 20 -112 36 -115 37 -6 0 -59 20 -120 45 -25 10 -70 28 -100 40 -76 31 -345 165 -380 190 -15 11 -33 20 -39 20 -6 0 -11 5 -11 10 0 6 -5 10 -12 10 -6 0 -26 11 -44 25 -18 14 -36 25 -39 25 -3 0 -21 11 -38 24 -40 29 -57 39 -57 32z"/>
 <path d="M517 1338 c-81 -163 -137 -302 -137 -337 0 -9 18 -36 39 -60 44 -52 63 -50 81 6 7 21 48 110 90 199 l78 161 -19 79 c-10 43 -21 89 -24 102 -3 12 -9 22 -14 22 -5 0 -47 -78 -94 -172z"/>
 <path d="M2110 1223 c0 -20 41 -123 73 -183 24 -46 67 -76 150 -106 20 -7 52 -20 70 -28 114 -54 489 -165 614 -181 l50 -7 41 52 c23 29 42 58 42 65 0 7 -39 21 -97 35 -136 31 -414 119 -508 161 -22 9 -69 30 -105 45 -36 16 -125 59 -197 96 -101 51 -133 63 -133 51z"/>
 <path d="M652 1138 c-39 -81 -85 -188 -112 -260 l-21 -58 42 -60 c45 -64 63 -73 75 -37 4 12 33 77 65 145 33 68 59 128 59 133 0 18 -64 199 -71 199 -3 0 -20 -28 -37 -62z"/>
 <path d="M760 853 c-13 -32 -33 -80 -45 -108 -38 -86 -38 -83 8 -136 23 -27 45 -49 48 -49 7 0 89 193 89 209 0 17 -61 141 -69 141 -4 0 -18 -26 -31 -57z"/>
 <path d="M2266 878 c39 -70 151 -228 161 -228 7 0 21 -4 31 -9 46 -23 348 -100 421 -107 50 -5 59 -3 84 19 26 24 52 82 42 97 -4 7 -21 12 -150 43 -176 43 -368 106 -527 173 -66 28 -72 29 -62 12z"/>
 <path d="M917 593 c-22 -53 -38 -129 -31 -147 6 -17 47 -46 64 -46 6 0 38 -13 72 -30 95 -48 97 -43 24 69 -25 37 -59 96 -76 130 -17 33 -33 61 -34 61 -2 0 -10 -17 -19 -37z"/>
 <path d="M2500 550 c0 -12 136 -150 148 -150 7 0 33 13 59 29 27 16 58 32 71 36 13 4 21 9 19 11 -9 9 -297 81 -297 74z"/>
 </g>

</svg>