<!DOCTYPE svg PUBLIC "-//W3C//DTD SVG 20010904//EN" "http://www.w3.org/TR/2001/REC-SVG-20010904/DTD/svg10.dtd">
<svg version="1.0" xmlns="http://www.w3.org/2000/svg" width="1600px" height="400px" viewBox="0 0 16000 4000" preserveAspectRatio="xMidYMid meet">
<g id="layer101" fill="#653f36" stroke="none">
 <path d="M770 3510 c-10 -6 -8 -19 15 -62 15 -29 33 -60 39 -68 32 -38 38 -77 26 -148 -7 -38 -10 -103 -8 -143 6 -73 15 -100 93 -277 16 -34 25 -65 22 -69 -4 -3 -44 -1 -89 5 -78 11 -199 24 -243 25 -60 2 -167 -17 -212 -37 -57 -27 -133 -91 -133 -112 0 -29 -37 -51 -96 -58 -81 -10 -94 -15 -94 -36 0 -18 61 -45 120 -52 22 -3 26 -9 31 -53 12 -90 76 -212 145 -276 36 -33 127 -97 157 -109 12 -6 29 -14 37 -20 8 -5 47 -23 85 -41 l70 -32 -70 -21 c-215 -67 -304 -158 -336 -339 l-11 -68 -73 -35 c-39 -19 -80 -43 -90 -54 -17 -19 -17 -20 8 -29 13 -5 56 -7 94 -4 l70 5 19 -52 c25 -69 69 -119 139 -155 54 -29 62 -30 183 -30 128 1 160 7 392 75 19 5 36 10 38 10 1 0 -17 -29 -42 -64 -96 -137 -113 -229 -63 -338 14 -31 31 -59 36 -63 23 -14 9 -57 -39 -123 -52 -72 -58 -87 -37 -95 14 -5 94 34 154 75 l42 29 58 -30 c114 -57 310 -65 438 -17 112 43 156 80 420 358 154 162 256 224 455 276 130 35 284 45 610 43 336 -3 346 -3 475 -19 122 -15 459 -31 875 -42 190 -4 548 -15 795 -24 899 -32 1429 -47 1865 -56 245 -5 576 -14 735 -20 160 -6 560 -15 890 -20 330 -6 758 -15 950 -20 995 -28 4128 -35 4845 -10 446 16 767 30 950 43 l175 12 16 55 c9 30 27 91 39 135 12 44 30 110 41 146 10 36 19 73 19 83 0 10 8 48 19 84 10 37 28 112 39 167 12 55 29 136 38 180 11 50 19 146 22 256 4 157 2 183 -17 255 -25 92 -47 147 -106 264 l-42 85 -79 12 c-106 16 -597 53 -704 53 -47 0 -193 7 -325 15 -132 8 -402 19 -600 25 -198 5 -463 15 -590 20 -126 6 -430 15 -675 20 -245 4 -746 15 -1115 24 -648 15 -1158 24 -2700 47 -850 13 -3845 6 -4125 -10 -102 -5 -306 -15 -455 -21 -229 -10 -292 -16 -415 -41 -281 -58 -436 -77 -711 -89 -387 -16 -993 -17 -1109 -1 -150 21 -179 38 -380 237 -231 227 -272 260 -396 309 -63 25 -77 27 -174 23 -95 -4 -113 -8 -182 -41 -61 -28 -81 -33 -90 -24 -14 13 -116 89 -133 99 -6 4 -17 3 -25 -2z"/>
 </g>
<g id="layer102" fill="#775148" stroke="none">
 <path d="M766 3502 c-3 -5 11 -35 30 -68 65 -111 68 -122 55 -190 -26 -143 -10 -225 80 -421 18 -40 30 -76 26 -79 -4 -4 -44 -2 -89 4 -251 36 -367 31 -465 -18 -65 -33 -106 -70 -131 -121 -15 -29 -24 -35 -67 -41 -113 -18 -115 -18 -115 -38 0 -19 16 -26 110 -48 33 -8 35 -11 41 -58 9 -64 34 -126 80 -194 64 -94 137 -150 306 -231 l108 -52 -70 -22 c-215 -66 -306 -158 -336 -340 l-11 -70 -52 -23 c-75 -34 -100 -49 -111 -66 -15 -25 1 -30 89 -28 l84 3 18 -52 c25 -68 70 -118 139 -154 54 -29 62 -30 183 -30 128 1 160 7 392 75 19 5 36 10 38 10 1 0 -17 -29 -42 -64 -95 -136 -112 -228 -63 -338 14 -31 31 -59 36 -63 24 -14 9 -62 -40 -127 -48 -65 -55 -88 -23 -88 15 0 108 49 157 83 l28 19 57 -30 c111 -59 308 -66 439 -17 85 32 160 90 278 214 193 204 252 259 321 304 123 79 275 128 464 148 135 14 743 14 829 0 131 -22 402 -37 956 -51 198 -5 531 -16 740 -24 209 -8 489 -17 622 -19 l243 -5 40 62 c184 279 294 646 302 1002 1 57 5 104 8 104 4 0 14 -17 24 -37 36 -74 65 -175 87 -301 20 -110 23 -161 22 -377 0 -179 -5 -281 -17 -359 -9 -60 -15 -111 -13 -112 1 -2 248 -8 547 -14 300 -6 653 -15 785 -20 132 -6 468 -13 746 -16 l506 -7 33 89 c73 201 120 456 120 657 1 92 2 100 15 83 28 -37 73 -171 94 -278 25 -128 45 -408 36 -495 l-6 -61 83 -6 c157 -11 1003 -24 1705 -25 386 -1 729 -4 761 -7 l59 -6 41 43 c100 107 205 267 280 429 109 231 167 475 181 759 l7 136 31 -66 c68 -143 103 -361 104 -644 0 -207 -13 -360 -46 -530 -12 -66 -21 -122 -20 -124 2 -2 453 2 1002 7 942 10 1484 26 1897 55 l169 12 17 55 c21 68 52 179 78 285 12 44 30 116 41 160 72 289 101 473 101 645 0 122 -4 158 -24 230 -22 79 -72 199 -124 296 l-21 42 -83 10 c-155 19 -482 43 -713 52 -126 5 -304 14 -394 20 -90 6 -166 8 -169 6 -2 -3 2 -61 8 -130 16 -157 8 -505 -14 -631 -21 -118 -48 -213 -85 -289 l-29 -61 -1 60 c-5 335 -90 672 -235 938 -76 141 -26 124 -446 142 -201 9 -588 20 -860 25 -272 5 -629 14 -793 20 -164 5 -464 12 -667 16 -315 6 -370 5 -370 -7 0 -8 9 -41 19 -75 30 -96 60 -295 71 -480 19 -306 -17 -622 -90 -798 -18 -42 -36 -76 -41 -76 -5 0 -9 42 -9 94 0 124 -25 315 -60 451 -80 317 -228 588 -440 807 l-95 98 -540 10 c-297 5 -864 13 -1260 16 l-720 7 -1 -234 c-1 -195 -4 -254 -22 -351 -24 -127 -61 -252 -92 -308 l-19 -35 -1 28 c0 16 -5 94 -11 175 -16 229 -53 392 -136 605 l-46 117 -961 0 c-873 -1 -1570 -11 -1583 -24 -3 -2 4 -33 16 -68 56 -168 91 -441 91 -705 0 -280 -38 -514 -107 -659 l-28 -59 -2 45 c-10 177 -27 331 -49 434 -75 353 -233 657 -471 903 l-80 83 -70 -4 c-39 -2 -92 -8 -119 -15 -218 -49 -476 -87 -649 -95 -71 -4 -182 -9 -245 -11 -253 -12 -904 -9 -1000 4 -151 21 -177 37 -395 251 -200 196 -270 251 -381 295 -63 25 -77 27 -174 23 -94 -4 -113 -8 -180 -40 -74 -34 -95 -36 -115 -12 -19 22 -106 84 -120 84 -8 0 -16 -4 -19 -8z"/>
 </g>
<g id="layer103" fill="#8d6d62" stroke="none">
 <path d="M1105 3471 c-53 -13 -155 -63 -155 -76 0 -7 7 -30 16 -51 15 -36 15 -39 -3 -52 -10 -8 -35 -12 -60 -10 -23 2 -40 1 -37 -1 2 -2 -1 -10 -7 -18 -6 -7 -14 -53 -17 -101 -5 -104 8 -159 74 -304 24 -54 44 -102 44 -108 0 -12 -51 -13 -105 -1 -34 8 -162 21 -230 24 -58 3 -167 -17 -210 -37 -63 -29 -133 -93 -141 -127 -5 -24 -2 -28 33 -39 21 -7 44 -17 50 -23 16 -12 17 -63 2 -73 -12 -7 -71 -7 -105 0 -19 4 -20 1 -13 -52 10 -69 65 -183 119 -244 50 -58 145 -120 275 -183 l100 -48 -70 -22 c-165 -50 -253 -115 -300 -219 -24 -52 -51 -174 -41 -184 3 -3 23 -8 43 -11 34 -6 38 -10 41 -39 3 -30 0 -34 -38 -49 -46 -19 -47 -27 -9 -108 24 -51 57 -84 124 -122 48 -27 55 -28 180 -28 132 1 159 6 395 75 19 5 36 10 37 10 6 0 -26 -51 -53 -85 -49 -63 -79 -141 -78 -205 3 -85 67 -210 109 -210 8 0 26 5 40 12 36 16 60 -9 59 -63 -1 -38 1 -41 46 -64 60 -31 193 -49 290 -40 154 14 250 71 415 244 254 268 318 320 455 374 186 73 333 91 729 90 162 -1 288 2 282 6 -8 6 -4 13 13 25 28 17 34 44 14 50 -7 2 -65 16 -128 30 -205 47 -200 45 -200 77 0 15 -5 31 -12 35 -6 4 -52 9 -100 11 -49 2 -101 9 -116 15 -31 12 -42 9 233 67 287 62 367 80 373 85 8 9 -21 38 -82 82 l-54 39 90 22 c96 24 147 48 131 64 -5 5 -65 20 -134 33 -252 49 -404 96 -310 96 38 0 186 43 281 81 134 53 140 74 36 109 -36 12 -66 25 -66 30 0 4 14 10 30 14 33 6 39 20 13 30 -9 4 -106 27 -216 52 -109 24 -251 58 -315 75 -64 17 -143 38 -174 46 -32 9 -58 19 -58 23 0 4 42 13 93 19 130 17 321 50 392 66 33 8 114 26 180 41 66 14 124 30 130 35 14 14 -10 26 -75 40 -30 6 -86 19 -125 30 -38 11 -97 27 -130 36 -83 23 -86 29 -18 38 63 7 294 50 352 64 20 5 48 12 64 15 16 4 27 13 27 22 0 18 11 18 -365 -2 -222 -11 -920 -8 -1015 5 -151 20 -176 36 -395 250 -271 266 -357 318 -528 319 -51 0 -105 -3 -122 -7z"/>
 </g>
<g id="layer104" fill="#b59c8f" stroke="none">
 <path d="M1105 3471 c-40 -10 -155 -62 -155 -70 1 -3 7 -17 15 -31 24 -42 19 -79 -12 -91 -15 -5 -36 -8 -48 -5 -42 10 -57 -16 -63 -112 -5 -104 8 -159 74 -304 24 -54 44 -102 44 -108 0 -12 -51 -13 -105 -1 -34 8 -162 21 -230 24 -58 3 -167 -17 -210 -37 -63 -29 -134 -94 -138 -124 -2 -20 6 -27 42 -40 55 -21 69 -41 55 -79 -10 -27 -12 -28 -73 -25 l-64 4 5 -51 c6 -64 63 -181 118 -243 50 -58 145 -120 275 -183 l100 -48 -70 -22 c-207 -63 -296 -148 -330 -313 -16 -75 -10 -89 38 -94 24 -2 34 -9 41 -31 13 -36 0 -57 -45 -72 -39 -14 -41 -30 -9 -98 25 -53 58 -86 125 -124 48 -27 55 -28 180 -28 132 1 159 6 395 75 19 5 36 10 37 10 6 0 -26 -51 -53 -85 -81 -102 -98 -212 -50 -317 33 -74 62 -94 116 -80 36 9 42 8 55 -11 8 -12 15 -40 15 -63 0 -39 2 -42 48 -63 56 -26 167 -40 274 -35 84 4 188 37 239 76 86 67 137 113 206 189 205 223 298 299 433 352 184 72 335 91 708 90 l273 -1 36 33 37 34 -24 9 c-14 5 -91 24 -172 43 -145 33 -148 34 -148 60 0 15 -6 31 -12 37 -7 5 -56 12 -108 14 -52 3 -108 11 -125 18 l-30 13 55 13 c30 8 174 39 320 70 146 31 267 57 269 60 7 7 -20 33 -80 78 l-58 44 70 16 c87 19 166 53 153 65 -5 5 -52 16 -104 25 -109 20 -371 85 -383 95 -4 4 25 12 65 19 130 20 368 109 368 138 0 7 -34 25 -75 41 -73 27 -94 43 -56 43 26 0 51 10 51 20 0 5 -19 13 -42 18 -385 86 -735 175 -751 191 -4 4 45 15 110 25 211 31 306 47 463 82 210 46 231 51 238 59 10 10 -17 23 -63 30 -43 6 -354 90 -361 97 -2 3 47 12 109 22 145 23 350 64 382 76 14 5 25 15 25 21 0 8 -32 10 -117 5 -290 -15 -371 -17 -753 -18 -449 -2 -558 6 -650 49 -41 20 -99 70 -245 212 -271 266 -357 318 -528 319 -51 0 -105 -3 -122 -7z"/>
 </g>
<g id="layer105" fill="#cab5a6" stroke="none">
 <path d="M1129 3476 c-3 -3 -14 -7 -25 -9 -29 -6 -154 -56 -154 -63 0 -1 9 -21 20 -45 11 -24 20 -49 20 -55 0 -15 -45 -34 -84 -34 -91 0 -89 -200 4 -397 17 -35 30 -68 30 -73 0 -6 4 -10 8 -10 4 0 9 -13 10 -29 2 -33 8 -32 -103 -11 -53 10 -213 22 -279 20 -105 -3 -182 -32 -253 -97 -60 -55 -60 -73 5 -102 47 -22 52 -28 52 -57 0 -46 -20 -58 -86 -50 l-57 6 5 -48 c11 -109 117 -267 227 -336 69 -44 151 -86 166 -86 8 0 15 -3 15 -7 0 -5 21 -16 46 -27 49 -20 51 -25 8 -32 -45 -7 -100 -28 -188 -70 -41 -20 -72 -45 -98 -78 -40 -50 -73 -106 -63 -106 3 0 -2 -16 -10 -36 -8 -20 -12 -40 -9 -45 2 -5 0 -17 -5 -28 -13 -24 11 -48 54 -53 27 -3 30 -7 33 -40 2 -28 -2 -40 -20 -52 -12 -9 -30 -16 -40 -16 -21 0 -32 -16 -21 -32 4 -7 8 -17 9 -23 12 -68 107 -158 194 -183 52 -15 245 -8 305 12 6 1 28 6 50 11 22 4 55 14 72 22 18 7 35 13 38 13 3 0 6 0 8 1 1 0 11 2 21 4 11 2 30 6 42 9 21 6 22 4 11 -17 -7 -13 -26 -41 -42 -62 -53 -69 -80 -141 -79 -208 1 -32 5 -62 11 -66 5 -3 14 -25 21 -48 8 -27 24 -50 43 -64 28 -20 35 -21 66 -9 32 11 37 10 56 -9 15 -15 22 -34 22 -65 0 -43 2 -46 45 -66 48 -22 101 -29 250 -30 80 -1 106 3 168 25 39 15 72 31 72 35 0 9 123 106 131 103 4 -1 13 4 19 12 7 8 9 15 4 15 -5 0 2 6 16 13 14 8 24 19 22 26 -1 6 6 15 15 18 10 4 27 18 37 31 47 59 172 184 224 224 31 23 59 46 60 51 2 4 9 7 16 7 6 0 23 8 36 17 28 20 91 44 195 74 105 31 240 50 382 53 45 1 85 5 89 8 4 4 15 3 25 -2 11 -7 20 -7 24 0 6 10 32 9 51 -2 12 -8 40 -5 50 5 10 9 26 9 21 0 -3 -5 44 -9 103 -10 l108 -2 39 34 c21 18 36 35 33 37 -3 2 -70 19 -150 37 -176 40 -194 46 -186 68 4 9 -1 24 -10 34 -14 16 -32 19 -103 19 -61 0 -98 6 -126 19 l-40 18 70 15 c39 9 184 40 323 69 138 29 252 57 252 61 0 11 -49 53 -103 90 l-40 27 29 6 c76 17 181 47 193 54 23 15 3 29 -52 36 -88 11 -425 92 -440 105 -5 4 18 11 50 15 109 13 367 99 393 130 14 17 -1 28 -80 55 -84 30 -90 36 -41 44 23 3 41 10 41 15 0 4 -44 18 -97 30 -495 115 -714 173 -700 187 2 2 82 15 177 29 261 39 640 118 640 134 0 4 -66 24 -147 44 -82 20 -179 47 -218 59 l-70 21 40 8 c22 4 117 22 210 39 230 41 278 53 283 68 3 11 -11 12 -69 7 -114 -11 -295 -15 -769 -17 -482 -2 -588 5 -679 48 -66 32 -48 16 -249 214 -167 166 -239 230 -256 230 -6 0 -19 8 -30 19 -44 40 -142 68 -240 70 -50 1 -94 0 -97 -3z"/>
 </g>
<g id="layer106" fill="#dccab9" stroke="none">
 <path d="M1125 3469 c-3 -3 -23 -9 -46 -13 -31 -5 -109 -36 -126 -50 -2 -1 6 -20 17 -41 11 -22 20 -47 20 -57 0 -22 -30 -38 -73 -38 -52 0 -75 -43 -73 -141 1 -41 7 -85 15 -98 7 -13 15 -41 17 -63 2 -22 11 -46 19 -54 8 -9 15 -24 15 -33 0 -10 9 -30 21 -45 11 -14 17 -30 14 -36 -3 -5 -1 -10 4 -10 6 0 10 -3 10 -7 -1 -5 0 -10 1 -13 12 -31 7 -40 -23 -38 -18 1 -40 6 -51 11 -14 7 -17 6 -10 -5 6 -11 5 -11 -9 1 -9 7 -38 15 -64 17 -85 8 -332 6 -345 -2 -7 -5 -20 -9 -28 -11 -8 -1 -16 -7 -18 -13 -2 -5 -8 -8 -12 -5 -5 3 -20 -7 -34 -22 -14 -15 -26 -24 -26 -20 0 11 -56 -46 -63 -65 -7 -20 6 -32 56 -47 48 -16 63 -43 47 -82 -12 -28 -15 -29 -76 -29 -64 0 -64 0 -64 -29 0 -43 62 -191 81 -191 5 0 8 -4 4 -9 -3 -6 4 -15 15 -21 11 -6 17 -16 14 -22 -4 -6 -3 -8 4 -4 11 6 27 -10 27 -29 0 -5 7 -10 15 -10 8 -1 14 -6 13 -13 -2 -7 4 -12 12 -12 8 0 15 -4 15 -10 0 -5 17 -17 37 -27 21 -9 41 -22 45 -27 4 -6 13 -11 20 -11 20 -1 65 -23 73 -34 3 -6 17 -11 30 -11 13 0 28 -7 32 -14 5 -8 24 -22 43 -30 26 -11 30 -16 15 -17 -11 -1 -23 -1 -27 0 -5 0 -8 -3 -8 -9 0 -5 -8 -9 -18 -8 -24 2 -82 -13 -82 -22 0 -4 -14 -10 -30 -14 -17 -3 -40 -15 -52 -25 -11 -11 -25 -18 -30 -15 -4 3 -8 0 -8 -7 0 -7 -3 -9 -7 -6 -5 6 -31 -18 -70 -67 -7 -8 -13 -20 -13 -26 0 -5 -4 -10 -9 -10 -11 0 -26 -39 -22 -58 1 -7 -4 -21 -12 -32 -9 -12 -11 -35 -8 -67 6 -46 8 -48 39 -51 25 -3 35 -10 43 -30 15 -40 -3 -69 -51 -83 -43 -13 -48 -20 -26 -38 7 -6 13 -23 14 -38 0 -15 8 -32 18 -40 10 -7 15 -13 11 -13 -3 0 5 -11 19 -25 13 -13 27 -24 31 -24 3 0 9 -3 12 -8 10 -13 49 -33 66 -33 9 0 14 -4 11 -8 -6 -10 5 -11 132 -15 57 -2 105 0 107 4 3 4 16 6 30 4 14 -1 25 2 25 8 0 5 9 7 20 4 11 -3 20 -2 20 2 0 4 8 7 18 8 43 3 73 11 87 23 8 7 22 10 30 6 11 -4 14 -2 9 6 -5 7 0 9 14 6 12 -4 25 -2 28 3 3 5 10 7 15 3 5 -3 17 0 25 7 8 6 18 9 21 5 4 -4 1 -11 -7 -16 -7 -5 -15 -16 -16 -25 -1 -9 -12 -25 -25 -36 -12 -10 -18 -19 -13 -19 5 0 -2 -7 -14 -16 -12 -8 -22 -26 -22 -40 0 -13 -4 -24 -9 -24 -10 0 -33 -52 -30 -66 1 -5 -1 -21 -5 -37 -5 -17 -4 -33 4 -42 7 -8 10 -22 6 -30 -3 -8 -1 -15 4 -15 9 0 17 -20 25 -61 2 -12 6 -22 7 -23 2 -1 18 -11 36 -24 25 -18 36 -20 51 -12 51 27 91 -10 91 -84 0 -30 5 -38 33 -53 17 -9 52 -18 77 -19 60 -3 194 -13 200 -15 39 -10 226 43 215 61 -3 5 8 18 25 30 16 12 56 43 87 70 31 27 62 46 68 43 5 -4 7 -2 2 2 -10 11 33 56 46 48 6 -3 7 -1 4 5 -4 5 11 25 33 43 22 18 40 37 40 42 0 5 32 41 70 79 39 38 70 66 70 61 0 -4 11 5 25 21 14 16 25 25 25 20 0 -5 5 -1 11 9 6 9 14 15 20 12 5 -4 9 -1 9 4 0 6 6 11 14 11 7 0 24 8 37 19 13 10 39 22 57 25 17 4 32 12 32 17 0 5 3 8 8 8 16 -3 72 14 72 22 0 5 6 6 13 3 8 -3 27 0 43 7 16 6 40 13 54 14 14 2 48 7 75 11 28 5 61 9 75 11 66 7 92 12 97 16 3 3 16 2 29 -3 15 -6 24 -6 24 0 0 6 61 10 155 10 108 0 155 -3 155 -11 0 -8 4 -9 13 0 8 6 17 8 20 5 4 -4 31 -9 62 -11 50 -4 59 -2 96 28 22 17 37 35 32 39 -4 4 -75 22 -158 40 -82 19 -156 38 -162 43 -7 5 -13 20 -13 33 0 34 -33 47 -99 41 -57 -5 -161 18 -164 37 -1 5 135 38 303 73 168 35 311 66 319 69 19 6 -18 45 -81 87 -53 33 -60 47 -25 47 48 0 216 54 204 66 -2 2 -51 13 -108 24 -141 27 -399 92 -399 101 0 4 33 13 73 19 104 18 228 55 316 96 70 33 75 36 57 49 -10 8 -49 24 -85 36 -87 28 -93 36 -36 44 77 12 73 14 -240 85 -285 65 -533 135 -522 147 3 2 93 17 202 33 169 25 507 92 600 119 38 11 36 11 -140 56 -168 43 -278 75 -273 80 2 2 60 13 128 25 237 39 385 72 400 87 13 14 10 15 -35 9 -27 -4 -90 -9 -140 -12 -49 -2 -105 -6 -122 -7 -18 -2 -33 1 -33 5 0 4 -5 8 -11 8 -5 0 -8 -3 -6 -7 3 -5 -110 -8 -251 -7 -173 1 -262 -3 -271 -10 -12 -9 -13 -8 -6 4 8 13 7 13 -8 1 -12 -9 -17 -10 -17 -2 0 7 -5 9 -12 4 -19 -11 -39 -13 -32 -2 3 5 0 9 -5 9 -6 0 -11 -4 -11 -10 0 -5 -5 -10 -11 -10 -5 0 -8 4 -5 8 6 10 -51 9 -60 -1 -13 -13 -46 -8 -38 6 5 8 2 8 -9 -2 -12 -9 -17 -10 -17 -2 0 7 -5 9 -12 4 -16 -10 -69 -13 -63 -3 2 4 -31 6 -75 5 -44 -1 -78 1 -76 4 2 3 -16 7 -40 8 -72 3 -204 49 -204 71 0 7 -4 10 -10 7 -5 -3 -10 -2 -10 3 0 5 -11 14 -25 20 -14 6 -25 19 -25 27 0 9 -4 13 -10 10 -5 -3 -10 -1 -10 5 0 6 -59 70 -132 143 -73 73 -128 125 -124 117 5 -8 -7 1 -27 22 -19 20 -38 34 -41 30 -3 -3 -6 0 -6 7 0 7 -4 10 -8 7 -5 -3 -18 4 -30 14 -12 11 -26 20 -32 20 -6 0 -8 5 -5 10 3 6 -2 11 -12 11 -10 1 -22 2 -28 4 -5 1 -16 3 -23 3 -7 1 -10 7 -6 14 4 6 3 8 -4 4 -6 -3 -23 -1 -39 5 -31 13 -202 19 -208 8z"/>
 </g>
<g id="layer107" fill="#fcedda" stroke="none">
 <path d="M1292 3474 c5 -7 -18 -11 -68 -12 -87 -2 -116 -6 -171 -26 -23 -8 -43 -12 -46 -10 -2 3 -16 0 -30 -7 l-25 -11 19 -32 c10 -17 19 -45 19 -63 0 -27 -5 -33 -32 -42 -18 -5 -44 -11 -58 -13 -18 -2 -26 -11 -33 -38 -24 -91 -3 -205 64 -347 22 -48 42 -101 43 -118 1 -29 0 -30 -47 -31 -29 -1 -54 4 -62 12 -10 10 -14 11 -17 2 -3 -7 -12 -9 -23 -4 -16 6 -17 9 -5 16 13 8 12 10 -2 10 -10 0 -18 -4 -18 -10 0 -5 -15 -8 -32 -6 -20 2 -32 9 -30 17 3 10 0 10 -12 0 -11 -9 -51 -12 -140 -9 -72 2 -122 -1 -118 -6 3 -5 -5 -7 -16 -4 -12 4 -20 2 -17 -2 3 -4 -14 -20 -37 -34 -24 -14 -62 -43 -86 -64 l-43 -39 33 -15 c18 -9 43 -19 55 -23 30 -8 40 -51 22 -84 -14 -23 -21 -26 -74 -26 -58 0 -60 -1 -60 -27 -1 -15 2 -25 6 -23 10 7 31 -74 23 -88 -4 -6 -4 -9 1 -5 4 4 21 -13 37 -38 17 -24 54 -70 84 -101 29 -31 50 -61 47 -66 -4 -6 -1 -7 7 -2 7 4 15 4 19 -1 3 -5 27 -19 53 -32 26 -13 50 -27 53 -33 4 -5 14 -9 24 -9 10 0 24 -7 31 -15 7 -8 23 -15 35 -15 22 0 50 -22 40 -32 -3 -2 5 -4 17 -4 13 1 24 -6 26 -16 2 -13 -13 -22 -70 -39 -138 -41 -234 -100 -276 -171 -9 -15 -22 -28 -28 -28 -7 0 -10 -8 -7 -21 4 -12 -3 -32 -16 -49 -13 -18 -16 -27 -7 -24 11 4 13 -4 9 -40 -6 -46 -5 -46 25 -46 34 0 52 -22 52 -63 0 -26 -23 -51 -58 -62 -24 -7 -24 -12 -1 -72 11 -31 88 -113 105 -113 8 0 14 -7 14 -15 0 -9 6 -12 16 -8 8 3 29 -4 46 -17 17 -12 28 -18 25 -13 -4 6 28 10 83 11 100 2 131 8 312 58 70 19 132 33 138 29 13 -8 13 -35 0 -35 -5 0 -10 -5 -10 -11 0 -5 -16 -31 -36 -57 -20 -26 -42 -62 -50 -80 -7 -18 -18 -31 -23 -28 -5 3 -12 -1 -15 -10 -4 -9 -2 -13 5 -8 8 5 9 -6 4 -35 -9 -57 26 -169 65 -206 26 -25 32 -26 60 -17 17 6 37 9 44 6 18 -7 34 -48 38 -94 5 -59 27 -66 262 -75 60 -3 111 -7 114 -10 3 -3 10 -5 16 -5 6 0 4 5 -4 11 -12 8 -9 10 13 6 15 -2 27 0 27 5 0 6 7 8 15 4 8 -3 21 1 29 9 8 8 48 41 89 74 75 60 129 112 311 299 54 56 129 122 166 147 185 123 457 177 855 169 110 -2 209 -5 220 -7 27 -5 69 10 90 33 19 21 28 18 -115 50 -210 49 -195 43 -198 78 -4 38 -14 41 -127 46 -78 3 -161 28 -151 44 3 5 143 37 311 73 169 35 311 67 318 71 13 8 -12 31 -85 80 -27 17 -48 34 -48 38 0 4 35 14 79 23 80 16 158 43 149 52 -3 3 -56 14 -118 25 -106 20 -380 87 -389 96 -9 9 8 14 90 29 148 28 378 112 364 134 -3 5 -40 21 -82 37 -99 35 -106 42 -54 50 23 4 39 10 34 15 -4 4 -98 28 -208 53 -110 25 -234 55 -275 66 -41 10 -86 22 -100 26 -14 3 -68 20 -120 37 -74 24 -90 32 -75 38 11 5 100 20 198 34 98 14 265 44 370 66 106 23 202 44 215 47 35 7 26 20 -20 27 -64 11 -362 95 -371 104 -12 12 9 17 128 36 152 24 358 66 375 77 11 7 8 8 -10 4 -81 -19 -440 -29 -440 -13 0 9 -3 8 -8 0 -6 -10 -100 -13 -403 -14 -217 -1 -414 2 -439 6 -25 4 -57 8 -71 9 -14 2 -36 10 -49 19 -12 8 -29 13 -36 10 -8 -3 -14 0 -14 6 0 6 -12 11 -27 11 -37 0 -81 35 -223 179 -157 160 -233 227 -305 271 -22 13 -42 27 -45 31 -3 3 -21 9 -41 13 -21 4 -50 16 -65 29 -15 12 -25 17 -22 11z"/>
 </g>

</svg>