<!DOCTYPE svg PUBLIC "-//W3C//DTD SVG 20010904//EN" "http://www.w3.org/TR/2001/REC-SVG-20010904/DTD/svg10.dtd">
<svg version="1.0" xmlns="http://www.w3.org/2000/svg" width="1200px" height="1200px" viewBox="0 0 12000 12000" preserveAspectRatio="xMidYMid meet">
<g id="layer101" fill="#191919" stroke="none">
 <path d="M5204 11051 c-5 -33 -11 -41 -35 -46 -15 -4 -33 -13 -40 -21 -6 -8 -17 -14 -23 -14 -26 0 -94 -140 -99 -202 -2 -22 -4 -22 -23 -3 -9 9 -37 16 -67 17 -29 1 -68 2 -87 3 -69 4 -158 -58 -182 -126 -8 -23 -16 -27 -68 -33 -33 -4 -62 -12 -66 -18 -11 -18 33 -46 82 -54 37 -5 45 -11 51 -33 9 -37 49 -87 90 -111 25 -14 60 -22 121 -26 48 -4 89 -8 92 -11 8 -8 6 -567 -2 -592 -5 -13 -10 -49 -12 -80 -3 -31 -9 -92 -15 -136 -10 -76 -15 -130 -26 -273 -3 -34 -7 -82 -10 -105 -2 -23 -7 -94 -11 -157 -3 -63 -8 -133 -9 -155 -2 -22 -6 -114 -10 -205 -4 -91 -8 -178 -10 -195 -6 -49 -7 -564 -1 -573 2 -4 8 -127 11 -273 3 -145 8 -277 10 -294 5 -42 14 -179 21 -315 3 -63 9 -171 13 -240 12 -178 3 -684 -13 -840 -2 -19 -7 -69 -11 -110 -3 -41 -11 -102 -17 -135 -6 -33 -12 -69 -14 -80 -8 -48 -44 -178 -77 -275 -68 -201 -94 -255 -270 -560 -53 -92 -197 -392 -245 -510 -6 -14 -31 -76 -57 -138 -62 -152 -171 -484 -186 -566 -7 -36 -15 -66 -19 -66 -3 0 -7 -12 -7 -27 -1 -16 -8 -64 -16 -108 -16 -81 -19 -101 -37 -279 -10 -100 -14 -370 -6 -461 9 -105 26 -216 36 -235 9 -17 8 -20 -13 -20 -36 0 -111 -53 -144 -102 -38 -56 -57 -126 -50 -186 5 -42 3 -50 -24 -76 -49 -50 -34 -92 22 -59 30 17 31 17 45 -1 14 -20 14 -20 14 0 0 11 3 15 8 8 25 -38 149 -46 193 -13 l24 18 21 -73 c26 -86 54 -126 141 -197 17 -15 31 -32 30 -40 -3 -39 17 -119 29 -119 19 0 44 53 44 93 0 30 4 35 28 39 47 8 57 12 75 33 33 35 57 93 57 135 0 22 4 40 9 40 4 0 5 17 1 38 l-7 39 36 -3 c20 -2 48 3 63 11 26 12 30 11 70 -21 50 -39 64 -42 73 -14 7 24 -14 90 -34 106 -12 10 -12 17 2 53 10 23 17 54 17 70 0 40 -27 111 -52 138 -12 13 -18 23 -14 23 4 0 -14 19 -41 41 -54 48 -99 69 -143 69 l-30 0 -2 133 c-2 183 0 273 8 337 4 30 7 58 6 62 -1 4 3 29 8 55 10 47 15 78 24 154 6 46 77 307 113 413 37 110 109 267 118 258 5 -4 6 0 2 9 -3 9 6 35 19 59 13 23 24 47 24 52 0 5 9 23 21 39 11 16 22 37 24 47 13 67 141 271 250 397 l25 30 -19 -35 c-22 -40 -92 -215 -109 -275 -60 -207 -66 -240 -108 -554 -8 -62 -5 -384 5 -460 4 -35 6 -78 4 -95 -2 -17 -2 -47 -1 -66 1 -19 2 -52 2 -73 0 -20 4 -37 7 -37 4 0 6 -15 5 -32 -1 -18 1 -42 5 -53 4 -11 15 -47 24 -80 10 -33 24 -74 31 -92 8 -17 14 -39 14 -50 0 -10 12 -40 25 -68 14 -27 25 -57 25 -65 0 -9 9 -33 20 -55 11 -22 20 -47 20 -57 0 -10 3 -18 8 -18 6 0 52 -90 52 -103 0 -3 16 -33 35 -66 19 -32 35 -65 35 -71 0 -23 99 -110 126 -110 29 0 64 16 81 39 25 32 82 147 97 196 8 28 25 77 37 110 21 60 37 114 65 215 8 30 19 57 25 60 5 4 36 1 69 -6 58 -12 92 -16 225 -30 33 -3 63 -8 67 -11 5 -2 30 -6 56 -8 26 -3 76 -7 112 -10 36 -3 81 -10 100 -15 19 -5 46 -9 60 -9 14 0 153 -3 310 -7 330 -8 282 -8 444 0 124 5 129 5 147 -17 10 -12 18 -25 19 -28 0 -13 83 -144 131 -209 109 -146 193 -234 244 -256 68 -28 130 20 160 124 38 131 43 149 49 197 3 28 8 79 11 115 3 36 8 81 11 100 22 158 22 1015 0 1175 -40 286 -59 376 -106 510 -17 50 -32 98 -34 107 -1 10 -11 26 -21 38 -10 11 -16 22 -13 25 5 6 123 -113 196 -198 56 -65 169 -231 199 -292 17 -34 52 -101 100 -190 35 -64 91 -225 103 -299 5 -28 17 -85 26 -126 9 -41 17 -91 19 -110 8 -86 17 -169 24 -217 4 -29 8 -178 8 -333 1 -236 -1 -280 -13 -280 -50 0 -193 -110 -195 -149 -1 -12 -2 -31 -2 -43 -1 -15 -12 -28 -30 -37 -35 -18 -60 -53 -51 -75 7 -17 34 -22 34 -6 0 14 143 1 155 -15 7 -8 30 -13 62 -12 l51 2 4 -75 c6 -83 35 -151 88 -203 27 -26 30 -36 30 -88 0 -56 1 -59 25 -59 28 0 68 38 60 57 -2 8 4 21 15 31 65 55 91 91 110 151 12 34 20 73 18 85 -3 20 1 21 61 19 48 -2 70 2 90 16 46 32 61 33 61 6 0 -15 6 -25 14 -25 8 0 29 -12 46 -27 24 -20 34 -23 40 -13 9 14 2 44 -28 111 -17 39 -19 57 -12 110 6 49 4 71 -8 94 -27 55 -71 101 -117 126 -25 13 -45 27 -45 31 0 5 -9 8 -20 8 -11 0 -18 5 -15 13 7 22 15 130 21 308 6 166 -2 318 -26 494 -5 39 -12 93 -15 120 -3 28 -7 57 -10 65 -2 8 -7 35 -9 60 -15 124 -20 157 -36 204 -5 17 -12 48 -15 70 -2 21 -9 44 -15 51 -5 6 -8 14 -5 16 5 5 -36 156 -55 204 -6 17 -14 41 -17 55 -2 14 -8 29 -14 34 -5 6 -9 16 -9 23 0 7 -9 32 -19 56 -11 23 -24 59 -31 79 -6 21 -16 40 -21 43 -5 4 -9 15 -9 26 0 10 -4 19 -10 19 -5 0 -10 5 -10 11 0 15 -79 177 -89 183 -5 3 -12 17 -15 32 -4 14 -11 31 -16 37 -21 26 -80 120 -80 128 0 4 -6 12 -13 16 -23 14 -57 65 -50 76 3 6 1 7 -5 3 -7 -4 -12 -3 -12 3 0 5 -11 22 -25 37 -14 15 -25 33 -25 40 0 8 -4 13 -9 11 -17 -4 -90 87 -125 158 -80 159 -167 394 -220 595 -47 175 -63 243 -71 295 -3 17 -7 41 -10 55 -47 235 -70 418 -100 780 -11 126 -20 331 -19 400 1 66 30 190 44 190 4 0 11 12 15 27 3 14 15 38 26 51 10 14 19 30 19 36 0 15 84 129 135 184 41 45 146 122 164 122 6 0 11 4 11 10 0 5 18 15 40 21 22 7 40 16 40 20 0 4 33 17 73 28 39 12 86 26 102 31 55 17 180 20 261 5 76 -13 341 -105 353 -122 3 -4 24 -17 46 -28 21 -11 52 -31 67 -43 15 -13 28 -21 28 -17 0 10 100 -74 178 -149 73 -71 192 -209 192 -224 0 -6 3 -12 8 -14 7 -3 24 -29 86 -126 62 -99 216 -426 261 -557 41 -120 129 -449 140 -527 4 -24 11 -61 16 -83 17 -66 42 -192 60 -295 43 -249 148 -533 245 -660 45 -59 130 -141 150 -144 7 -1 18 -7 25 -13 49 -40 173 -50 209 -18 9 8 20 15 24 15 4 0 13 6 20 13 78 78 70 205 -21 371 -27 49 -138 275 -162 331 -28 64 -62 149 -66 165 -20 80 -46 173 -50 180 -5 8 -42 142 -49 175 -2 11 -36 124 -66 225 -11 36 -20 69 -20 73 0 5 -6 23 -14 40 -7 18 -38 106 -68 197 -59 177 -97 281 -127 345 -10 22 -28 66 -41 98 -13 31 -27 57 -31 57 -4 0 -11 14 -14 32 -4 18 -24 68 -45 113 -21 44 -45 96 -54 115 -49 110 -146 238 -278 371 -68 68 -127 125 -132 126 -4 1 -23 14 -42 30 -20 15 -48 38 -63 50 -45 36 -180 105 -191 98 -5 -3 -10 0 -10 7 0 8 -20 20 -45 27 -25 7 -45 18 -45 23 0 6 -7 8 -15 4 -8 -3 -15 -1 -15 4 0 6 -10 10 -23 10 -13 0 -27 4 -32 9 -6 5 -41 18 -80 30 -38 12 -83 26 -100 31 -46 14 -165 31 -175 25 -5 -3 -11 -2 -14 3 -3 5 -61 7 -129 6 -107 -2 -184 -12 -322 -39 -16 -4 -36 -7 -42 -7 -7 -1 -13 -5 -13 -10 0 -5 -4 -7 -9 -3 -5 3 -31 -6 -57 -20 -27 -14 -72 -33 -101 -41 -29 -8 -55 -19 -58 -24 -3 -5 -12 -7 -19 -4 -7 3 -16 -1 -19 -9 -3 -8 -17 -17 -32 -21 -15 -4 -44 -18 -66 -31 -40 -26 -54 -31 -45 -17 5 8 15 107 21 209 2 35 6 66 8 70 6 11 15 129 23 298 11 231 5 779 -11 1045 -3 41 -7 113 -10 160 -7 121 -16 201 -26 227 -4 12 -11 65 -15 117 -8 124 9 227 43 264 118 127 154 213 132 312 -8 36 -7 43 15 63 35 31 42 64 17 72 -11 3 -28 2 -38 -3 -10 -5 -24 -7 -32 -4 -8 3 -11 0 -7 -6 12 -20 -13 -23 -31 -4 -45 46 -201 52 -278 11 -20 -11 -38 -19 -40 -17 -1 2 -10 17 -18 34 -17 32 -61 80 -68 73 -8 -8 -69 65 -81 98 -9 25 -17 33 -33 31 -16 -2 -21 -12 -23 -50 -2 -38 -8 -50 -30 -64 -61 -40 -97 -116 -97 -210 0 -39 -3 -70 -6 -69 -21 13 -159 27 -159 17 0 -4 -14 -9 -31 -10 -18 -1 -44 -11 -59 -22 -16 -11 -32 -20 -37 -20 -16 0 -63 -51 -69 -74 -5 -20 -11 -23 -32 -20 -31 6 -72 -3 -72 -15 0 -20 40 -51 69 -53 25 -2 35 -10 51 -41 11 -21 28 -46 38 -56 27 -29 120 -70 174 -77 32 -4 52 -13 59 -25 26 -50 46 -622 26 -754 -4 -25 -14 -108 -23 -190 -4 -41 -34 -201 -43 -232 -5 -17 -7 -34 -4 -37 3 -3 1 -11 -5 -19 -6 -7 -13 -24 -15 -37 -2 -14 -7 -33 -10 -42 -4 -10 -10 -26 -14 -35 -3 -10 -8 -26 -10 -36 -2 -11 -28 -67 -58 -127 -55 -106 -64 -117 -195 -234 -29 -26 -105 -56 -168 -67 -74 -13 -202 -6 -212 12 -4 6 -12 9 -18 5 -6 -3 -13 -2 -17 4 -3 5 -14 10 -24 10 -16 0 -30 8 -91 58 -15 12 -30 22 -34 22 -8 0 -65 59 -106 110 -19 24 -40 48 -45 54 -43 45 -134 215 -165 306 -12 36 -26 74 -31 85 -17 37 -77 289 -94 395 -22 142 -23 515 -2 655 22 139 27 149 89 180 93 46 154 120 161 195 3 32 9 46 28 55 13 7 28 11 32 8 5 -3 18 5 29 17 21 22 21 23 2 37 -11 9 -37 13 -64 11 -41 -2 -49 1 -91 42 -25 25 -53 51 -62 57 -23 19 -104 26 -170 15 l-57 -9 -14 47 c-14 48 -54 119 -85 150 -9 10 -28 20 -43 24 -16 3 -28 13 -28 21 0 28 -24 65 -41 65 -14 0 -20 -10 -25 -39z"/>
 </g>
<g id="layer102" fill="#503736" stroke="none">
 <path d="M5176 10811 c-40 -44 17 -138 75 -124 13 3 35 17 48 30 23 24 23 26 8 58 -12 24 -25 35 -49 40 -18 3 -40 8 -49 11 -9 2 -23 -4 -33 -15z"/>
 <path d="M7135 10787 c-40 -15 -37 -12 -41 -47 -8 -69 51 -125 114 -108 17 5 32 15 32 22 0 7 7 19 15 26 22 18 19 73 -5 95 -24 21 -74 27 -115 12z"/>
 <path d="M7443 10683 c-42 -29 -21 -100 36 -126 26 -12 39 -13 55 -5 31 17 46 41 39 63 -4 11 -7 29 -8 40 -3 40 -80 58 -122 28z"/>
 <path d="M4847 10642 c-56 -7 -69 -97 -17 -118 41 -16 61 -14 85 10 31 31 32 56 3 83 -30 27 -38 29 -71 25z"/>
 <path d="M5552 10626 c-48 -23 -42 -109 9 -137 36 -19 66 -3 84 45 20 51 10 81 -31 96 -29 11 -31 11 -62 -4z"/>
 <path d="M6824 10542 c-49 -34 -46 -94 5 -125 40 -23 76 -21 101 6 25 26 21 71 -9 101 -20 20 -79 31 -97 18z"/>
 <path d="M5225 10530 c-3 -5 -12 -7 -19 -4 -7 3 -35 -14 -62 -36 -92 -79 -89 -148 9 -194 87 -41 156 -35 208 18 26 27 29 36 24 66 -10 50 -33 90 -72 124 -34 31 -77 43 -88 26z"/>
 <path d="M7205 10533 c-34 -7 -95 -37 -95 -47 0 -6 -11 -22 -25 -36 -36 -37 -41 -85 -16 -141 l21 -46 57 -3 c122 -7 150 -3 188 27 19 15 35 34 35 41 0 6 4 12 9 12 5 0 16 13 24 30 21 42 6 69 -68 118 -62 41 -95 52 -130 45z"/>
 </g>
<g id="layer103" fill="#f0837e" stroke="none">
 <path d="M5169 10793 c-9 -25 11 -79 35 -95 33 -23 109 4 91 32 -3 5 -2 10 4 10 16 0 8 40 -12 58 -11 10 -37 17 -64 18 -39 2 -46 -1 -54 -23z"/>
 <path d="M7133 10775 c-19 -8 -34 -22 -34 -32 -2 -34 3 -58 16 -79 16 -25 65 -41 75 -24 4 6 11 10 16 9 29 -5 36 2 54 63 6 21 4 33 -12 53 -22 29 -64 33 -115 10z"/>
 <path d="M7441 10673 c-22 -27 -21 -49 4 -89 37 -58 135 -21 122 46 -14 67 -88 92 -126 43z"/>
 <path d="M4837 10631 c-10 -4 -24 -19 -32 -34 -17 -32 -5 -62 30 -74 59 -20 117 37 87 85 -11 17 -63 31 -85 23z"/>
 <path d="M5564 10625 c-54 -22 -60 -77 -13 -118 29 -25 33 -26 58 -12 15 7 28 20 28 27 1 7 4 27 8 44 6 27 3 34 -22 52 -25 18 -32 19 -59 7z"/>
 <path d="M6832 10539 c-29 -11 -46 -53 -31 -80 5 -11 24 -28 41 -39 75 -46 142 53 74 109 -20 17 -54 21 -84 10z"/>
 <path d="M5185 10511 c-53 -24 -85 -60 -95 -107 -13 -55 19 -95 95 -118 91 -29 171 -6 190 55 9 26 -3 89 -15 89 -6 0 -9 3 -8 8 3 15 -38 71 -60 81 -33 15 -61 13 -107 -8z"/>
 <path d="M7158 10512 c-43 -19 -84 -70 -99 -123 -9 -30 -8 -42 10 -77 19 -36 26 -41 67 -48 53 -8 156 1 183 16 26 14 78 81 86 111 8 31 -38 80 -107 115 -55 28 -88 29 -140 6z"/>
 </g>
<g id="layer104" fill="#fe8b86" stroke="none">
 <path d="M5235 10811 c-3 -6 -1 -11 4 -11 6 0 11 -5 11 -12 0 -6 -7 -4 -18 5 -24 22 -29 21 -35 -2 -2 -11 3 -24 14 -32 28 -20 23 -32 -6 -13 -24 16 -25 15 -25 -4 0 -37 49 -68 65 -42 4 6 12 7 18 3 7 -4 5 2 -3 12 -14 17 -14 18 7 7 29 -16 36 -15 29 3 -3 8 -1 15 4 15 11 0 9 28 -4 48 -4 7 -14 11 -22 8 -8 -3 -13 0 -11 6 3 14 -20 22 -28 9z"/>
 <path d="M7180 10780 c0 -5 -7 -7 -15 -3 -19 7 -58 -26 -51 -44 3 -7 1 -13 -4 -13 -15 0 -12 -33 5 -57 15 -21 56 -28 52 -10 -1 5 4 12 11 14 8 3 10 -1 6 -14 -6 -17 -6 -17 8 1 10 13 21 17 33 12 15 -5 16 -4 5 9 -10 12 -10 15 2 15 20 0 16 55 -5 80 -18 21 -47 27 -47 10z m36 -14 c15 -16 18 -26 6 -26 -4 0 -13 9 -20 20 -14 23 -7 26 14 6z"/>
 <path d="M7490 10689 c0 -6 -7 -9 -15 -5 -9 3 -15 0 -15 -10 0 -8 -4 -13 -8 -10 -4 2 -13 -3 -19 -13 -9 -15 -8 -26 5 -52 32 -63 106 -58 127 10 5 18 0 30 -26 57 -34 35 -49 42 -49 23z"/>
 <path d="M4836 10622 c-9 -10 -13 -22 -9 -25 3 -4 -1 -7 -10 -7 -9 0 -19 -5 -22 -11 -8 -13 31 -52 44 -44 5 3 11 0 13 -5 5 -16 68 9 68 26 0 8 -4 14 -10 14 -5 0 -7 7 -4 15 4 10 0 15 -16 15 -11 0 -19 4 -16 9 3 5 0 14 -8 20 -10 8 -17 6 -30 -7z m8 -58 c4 -10 1 -14 -6 -12 -15 5 -23 28 -10 28 5 0 13 -7 16 -16z"/>
 <path d="M5530 10601 c-16 -32 -12 -56 16 -80 28 -24 51 -22 79 9 15 16 16 23 6 33 -10 9 -11 8 -6 -8 6 -19 6 -19 -5 -2 -10 15 -8 21 5 31 17 12 17 13 0 20 -10 4 -21 2 -25 -4 -5 -8 -9 -6 -13 4 -9 22 -44 20 -57 -3z"/>
 <path d="M6835 10540 c-14 -5 -20 -18 -22 -53 -3 -39 0 -49 19 -61 23 -15 71 -16 85 -2 4 4 1 12 -7 17 -12 8 -12 9 4 7 12 -2 20 4 21 15 2 9 -1 17 -6 17 -5 0 -8 6 -6 13 1 6 -6 11 -15 9 -11 -2 -18 3 -18 13 0 8 -6 15 -14 15 -8 0 -16 4 -18 9 -1 4 -12 5 -23 1z"/>
 <path d="M5210 10515 c-7 -8 -20 -15 -29 -15 -28 -1 -61 -36 -61 -65 0 -23 -2 -26 -15 -15 -12 10 -15 9 -15 -7 0 -11 3 -23 8 -27 4 -4 7 -20 7 -34 0 -29 38 -54 81 -54 12 0 25 -7 28 -14 6 -16 76 -19 76 -4 0 6 6 10 13 9 18 -2 57 12 57 21 0 5 3 17 6 27 5 15 4 15 -5 3 -6 -8 -11 -10 -11 -4 0 6 7 17 15 24 9 8 12 17 6 24 -4 6 -7 19 -6 28 2 11 -2 15 -13 11 -12 -5 -14 -2 -9 11 4 9 3 15 -2 11 -5 -3 -12 -1 -16 5 -3 5 -2 10 4 10 16 0 1 29 -20 41 -15 7 -17 6 -13 -6 4 -8 1 -15 -5 -15 -10 0 -15 14 -12 34 1 5 -6 6 -15 2 -9 -3 -22 -2 -29 4 -9 7 -16 6 -25 -5z m38 -116 c12 -19 11 -19 -8 -9 -11 6 -20 15 -20 20 0 17 15 11 28 -11z"/>
 <path d="M7183 10513 c-3 -7 -18 -13 -33 -13 -22 0 -34 -10 -58 -46 -55 -82 -51 -132 14 -163 16 -7 36 -17 44 -21 19 -9 107 -7 116 3 4 4 16 7 26 7 11 0 16 5 13 10 -3 6 2 10 12 10 21 0 83 59 83 78 0 6 -8 9 -17 6 -15 -5 -15 -3 1 10 11 9 14 16 7 16 -6 0 -11 6 -10 13 3 24 -1 38 -10 32 -5 -3 -16 3 -23 13 -14 20 -58 47 -58 36 0 -3 -7 0 -16 7 -22 18 -84 20 -91 2z m67 -103 c-20 -12 -32 -2 -17 15 8 8 16 10 22 4 6 -7 5 -13 -5 -19z"/>
 </g>

</svg>